<svg width="1000" height="1000" xmlns="http://www.w3.org/2000/svg" style="vector-effect: non-scaling-stroke;" stroke="null">
 <title stroke="null">recording</title>

 <g stroke="null">
  <title stroke="null">background</title>
  <rect stroke="null" x="-1" y="-1" width="1002" height="1002" id="canvas_background" fill="#ffffff" fill-opacity="0.0"/>
 </g>
 <g stroke="null">
  <title stroke="null">Layer 1</title>
  <path transform="rotate(-27.663963317871094 893.8747558593749,79.41130828857425) " stroke="null" d="m898.542411,98.744375l28.597597,-29.118584a11.413041,7.82796 0 0 0 -9.203227,-12.196639l-47.576002,-0.784579a11.413041,7.82796 0 0 0 -10.737098,10.966276l19.030401,29.903163a11.413041,7.82796 0 0 0 19.888329,1.230363z" fill="#536dfe" opacity="0.1" id="svg_106"/>
  <path transform="rotate(-24.741348266601562 69.18956756591724,872.0284423828124) " stroke="null" d="m42.982378,843.826124l-4.626569,54.086002a10.828141,12.154158 0 0 0 15.676194,11.988419l40.137948,-22.982407a10.803531,12.126535 0 0 0 1.722659,-20.385837l-35.48677,-31.131218a10.828141,12.154158 0 0 0 -17.423463,8.425041z" fill="#536dfe" opacity="0.1" id="svg_107"/>
  <path transform="rotate(45.00006866455078 56.522499084472585,361.0297546386719) " stroke="null" d="m30.315308,340.024467l-4.626573,40.283612a10.828149,9.052497 0 0 0 15.676207,8.929054l40.13798,-17.117449a10.80354,9.031923 0 0 0 1.72266,-15.183506l-35.486798,-23.186737a10.828149,9.052497 0 0 0 -17.423476,6.275026z" fill="#536dfe" opacity="0.1" id="svg_108"/>
  <path stroke="null" d="m81.387603,53.71079l-27.886595,7.287508a6.511817,5.496935 0 0 0 -2.284327,9.453726l20.766613,14.825445a6.52665,5.509456 0 0 0 10.501973,-2.754728l7.119982,-22.125475a6.52665,5.509456 0 0 0 -8.217646,-6.686476z" fill="#536dfe" opacity="0.1" id="svg_110"/>
  <path stroke="null" d="m-2829.715369,-3423.416476l-3.955589,1.378685a0.923672,1.039936 0 0 0 -0.324022,1.788501l2.945652,2.804748a0.925776,1.042305 0 0 0 1.489658,-0.521153l1.009938,-4.185802a0.925776,1.042305 0 0 0 -1.165636,-1.264979z" fill="#536dfe" opacity="0.1" id="svg_111"/>
  <path stroke="null" d="m1041.8,375.66l-18.8,5.82a4.39,4.39 0 0 0 -1.54,7.55l14,11.84a4.4,4.4 0 0 0 7.08,-2.2l4.8,-17.67a4.4,4.4 0 0 0 -5.54,-5.34z" fill="#536dfe" opacity="0.1" id="svg_112"/>
  <g stroke="null" id="svg_49">
   <rect stroke="null" transform="matrix(1.5503991364813337,0,0,1.4945469925932038,-16506.479358539393,-16750.754986965203) " id="svg_9" fill="#3f3d56" height="310.53452" width="20.4299" y="11551.917728" x="10809.86001"/>
   <polygon stroke="null" id="svg_10" fill="#3f3d56" points="535.0209627151489,501.91515827178955 535.0209627151489,514.1288728713989 18.727112770080566,520.2358064651489 18.727112770080566,508.0222749710083 19.455410957336426,507.5636568069458 110.58376789093018,450.0080842971802 493.84325885772705,450.0080842971802 535.0209627151489,501.91515827178955 "/>
   <path stroke="null" id="svg_11" fill="#ffb9b9" d="m443.165277,428.635262s-114.028213,9.160079 -76.018798,36.640135s76.018798,-18.320067 76.018798,-18.320067l0,-18.320067z"/>
   <polygon stroke="null" id="svg_12" opacity="0.1" points="535.0209627151489,502.2823152542114 535.0209627151489,514.1288728713989 18.727112770080566,520.2358064651489 18.727112770080566,508.0222749710083 19.455410957336426,507.5636568069458 535.0209627151489,502.2823152542114 "/>
   <path stroke="null" id="svg_13" fill="#939af9" d="m614.207604,279.021349l2.77292,-10.023777s-37.614885,64.983994 -40.782335,71.090683s-57.014099,58.013547 -63.348999,67.17358a64.71504,62.383722 0 0 1 -15.83725,15.266798l-60.181595,0s-12.669862,39.693479 6.334931,42.746824s79.186264,15.266723 91.856064,15.266723s91.856064,-70.22694 91.856064,-70.22694l-12.6698,-131.293891z"/>
   <polygon stroke="null" id="svg_14" fill="#3f3d56" points="626.8778352737427,721.7554597854614 607.8723421096802,978.2362337112427 626.8778352737427,978.2362337112427 649.0491609573364,715.6495637893677 626.8778352737427,721.7554597854614 "/>
   <polygon stroke="null" id="svg_15" fill="#3f3d56" points="858.1003694534302,691.2220125198364 839.0962190628052,947.7027864456177 858.1003694534302,947.7027864456177 880.2730379104614,685.1161165237427 858.1003694534302,691.2220125198364 "/>
   <polygon stroke="null" id="svg_16" fill="#3f3d56" points="892.9433259963989,721.7554597854614 873.9376497268677,978.2362337112427 892.9433259963989,978.2362337112427 915.1144685745239,715.6495637893677 892.9433259963989,721.7554597854614 "/>
   <polygon stroke="null" id="svg_17" fill="#3f3d56" points="598.3700227737427,697.3289461135864 579.3647737503052,953.8107576370239 598.3700227737427,953.8107576370239 620.5425691604614,691.2220125198364 598.3700227737427,697.3289461135864 "/>
   <polygon stroke="null" id="svg_18" fill="#3f3d56" points="965.7945222854614,370.6213655471802 911.9474153518677,743.1292390823364 592.0351228713989,730.9164705276489 594.1888704299927,696.5354280471802 598.3700227737427,630.1549348831177 845.4301424026489,642.3688631057739 886.6083040237427,370.6213655471802 965.7945222854614,370.6213655471802 "/>
   <path stroke="null" id="svg_19" opacity="0.1" d="m965.794593,370.621701l-53.846664,372.508081l-319.912459,-12.213438l2.153644,-34.380694c66.770094,2.473206 292.419231,-11.419475 292.419231,-11.419475c0,-48.731453 44.40771,-239.504384 62.335208,-314.494535l16.85104,0.00006z"/>
   <path stroke="null" id="svg_20" fill="#939af9" d="m405.155878,822.516755s-9.502396,70.22694 -28.507049,82.440318s79.18631,27.480101 79.18631,27.480101l6.334931,-91.600352l-57.014192,-18.320067z"/>
   <path stroke="null" id="svg_21" fill="#939af9" d="m725.068367,853.050201s15.837327,18.320067 19.0047,30.533461s50.679199,18.320067 50.679199,18.320067l34.841949,-36.640195s-44.344222,-36.64009 -57.014083,-36.64009s-47.511764,24.426756 -47.511764,24.426756z"/>
   <circle stroke="null" transform="matrix(1.5503991364813337,0,0,1.4945469925932038,-16506.479358539393,-16750.754986965203) " id="svg_22" fill="#ffb9b9" r="49.031769" cy="11307.780398" cx="11060.12631"/>
   <path stroke="null" id="svg_23" fill="#ffb9b9" d="m620.542504,199.63439s38.009399,70.226925 31.674499,82.440303s82.353714,-58.013547 82.353714,-58.013547s-31.674515,-48.853528 -31.674515,-64.120251s-82.353698,39.693494 -82.353698,39.693494z"/>
   <path stroke="null" id="svg_24" fill="#2f2e41" d="m655.384453,559.929078s-243.893676,-36.640135 -253.396026,48.853528s-44.344299,195.414082 -47.511749,204.574115s104.525925,61.066891 117.195663,42.746824s34.841949,-164.880621 28.507049,-177.093999s-9.502396,-27.480101 3.167465,-24.426756s152.037612,30.533446 180.544662,21.373412s101.358475,-131.293831 101.358475,-131.293831l-129.86554,15.266708z"/>
   <path stroke="null" id="svg_25" opacity="0.1" d="m655.384453,559.929078s-243.893676,-36.640135 -253.396026,48.853528s-44.344299,195.414082 -47.511749,204.574115s104.525925,61.066891 117.195663,42.746824s34.841949,-164.880621 28.507049,-177.093999s-9.502396,-27.480101 3.167465,-24.426756s152.037612,30.533446 180.544662,21.373412s101.358475,-131.293831 101.358475,-131.293831l-129.86554,15.266708z"/>
   <path stroke="null" id="svg_26" fill="#2f2e41" d="m649.049553,541.609026l9.502396,76.333614s-152.037612,54.960217 -95.023513,143.507209s120.363113,137.400535 120.363113,137.400535s101.358444,-54.960217 101.358444,-70.22694s-123.530563,-100.760385 -107.693313,-100.760385s243.893676,-12.213438 196.381927,-134.347176s-224.889054,-51.906858 -224.889054,-51.906858z"/>
   <path stroke="null" id="svg_27" fill="#2f2e41" d="m401.988428,908.010418s-25.339599,-27.480086 -25.339599,-21.373367s-72.851364,42.746824 -85.521164,45.800168s-31.674499,9.160079 -6.334931,18.320067s186.879577,12.213438 186.879577,6.106719s6.334931,-64.120236 -6.334931,-58.013547s-60.181502,21.373337 -63.348952,9.159959z"/>
   <path stroke="null" id="svg_28" fill="#2f2e41" d="m775.747597,886.637051s-34.841949,-9.160079 -38.009399,0s-6.334931,45.800168 -34.841965,58.013547s-38.009399,30.533446 0,33.58679s142.535278,-67.17358 142.535278,-79.386959s-12.669862,-48.853528 -19.004793,-45.800183s-22.172103,30.533446 -50.679121,33.586805z"/>
   <rect stroke="null" transform="matrix(1.5503991364813337,0,0,1.4945469925932038,-16506.479358539393,-16750.754986965203) " id="svg_29" fill="#3f3d56" height="36.77382" width="93.97755" y="11827.721418" x="10773.08618"/>
   <path stroke="null" id="svg_30" fill="#575a89" d="m734.570715,205.741074s-11.85553,-30.562775 -32.851101,-12.228041s-62.172404,64.134931 -62.172404,64.134931s-25.339606,9.160092 -34.841943,24.426772s-9.502405,116.027113 9.502392,149.613937s19.004687,91.600314 25.339592,106.86706s0,30.533451 22.172133,30.533451s-12.669837,-24.426758 60.181562,0s155.20508,54.960183 161.539985,33.586785s-9.502392,-33.586785 0,-42.746837s0,-12.213412 -6.334932,-33.586811s-12.669865,-24.426732 -15.837324,-51.90685s0,-54.960183 -6.334932,-67.173596s-6.334932,-30.533425 -6.334932,-61.066876s-19.004591,-91.600394 -53.846534,-109.920539s-60.181562,-30.533385 -60.181562,-30.533385z"/>
   <path stroke="null" id="svg_31" fill="#2f2e41" d="m566.905516,67.769104c17.656379,-16.61467 36.213045,-33.764208 59.717499,-41.00064c31.371722,-9.65857 66.34623,0.476447 93.354478,18.642486c5.8264,3.918941 11.532179,8.356177 15.033368,14.315444c3.211667,5.46644 4.334916,11.810404 5.353203,18.015524c3.585825,21.851443 6.524328,43.99486 4.771214,66.053373s-8.500265,44.229878 -22.592416,61.691193a132.160519,127.39952 0 0 1 -28.157729,-44.717504c-1.604151,-4.398975 -3.044844,-9.034208 -6.285318,-12.496012s-8.944253,-5.324548 -13.011601,-2.800781c-5.651205,3.506566 -4.941122,12.87062 -10.90788,15.852152a10.379519,10.005604 0 0 1 -6.520979,0.65902c-15.555341,-2.583877 -20.972792,-20.955477 -31.096542,-32.629712c-14.921832,-17.207168 -35.813522,-16.118181 -56.205069,-21.063308c-23.663851,-5.738702 -17.804365,-27.01582 -3.452227,-40.521234z"/>
   <ellipse stroke="null" transform="matrix(1.5503991364813337,0,0,1.4945469925932038,-16506.479358539393,-16750.754986965203) " id="svg_32" fill="#a09bff" ry="9.1295" rx="41.99571" cy="11520.981218" cx="10929.27814"/>
   <path stroke="#a09bff" id="svg_33" stroke-width="6" stroke-miterlimit="10" fill="#a09bff" d="m432.919805,469.423138l-1.274335,-64.967225c-0.285087,-14.534036 0.254188,-31.006604 11.463155,-40.730889c7.082611,-6.144456 17.731589,-8.785724 22.175359,-16.910799c2.420762,-4.426131 2.466437,-9.659556 2.456282,-14.66315l-0.179443,-88.432749"/>
   <rect stroke="null" transform="matrix(1.5503991364813337,0,0,1.4945469925932038,-16506.479358539393,-16750.754986965203) " id="svg_34" fill="#a09bff" rx="7.99999" height="37.73528" width="19.47627" y="11352.389738" x="10937.19038"/>
   <path stroke="null" id="svg_35" fill="#ffb9b9" d="m552.601471,455.099699s-104.981851,-26.843857 -113.54393,-3.754063s89.6289,44.463206 89.6289,44.463206l41.176849,0l-17.261818,-40.709144z"/>
   <path stroke="null" id="svg_36" fill="#939af9" d="m772.580132,254.594622s-47.511749,33.58679 -60.181549,82.440318s-22.172165,100.760385 -22.172165,100.760385l-145.702712,18.320067s-12.669862,48.853513 6.334931,51.906858s161.539978,12.213438 183.712127,0s98.190948,-164.880621 95.023498,-180.147344s-9.502396,-70.226925 -57.01413,-73.280284z"/>
   <path stroke="null" id="svg_37" fill="#d1d9ec" d="m204.748634,471.699094l51.46705,3.981294l73.388143,-4.593789l-1.277141,-0.11638l-67.980956,-6.314939c-15.567186,-5.512547 -4.765462,-37.975348 -4.765462,-37.975348l-52.089706,2.554181l-4.142791,0.202137c-18.426463,41.650349 5.400862,42.262845 5.400862,42.262845z"/>
   <path stroke="null" id="svg_38" opacity="0.1" d="m204.748634,471.699094l51.46705,3.981294l73.388143,-4.593789l-1.277141,-0.11638l-74.176056,2.566391l-49.71975,-5.206299c-14.105748,-3.577049 -6.029905,-27.189128 -0.940379,-39.096243l-4.142791,0.202137c-18.426401,41.650394 5.400924,42.26289 5.400924,42.26289z"/>
   <path stroke="null" id="svg_39" fill="#4c4c56" d="m119.445037,175.240652l15.414221,215.454536l0,26.003137c0.47019,6.535462 3.693894,17.913563 10.492592,17.870677l12.628751,-10.441197l227.359828,0c3.913969,-0.024531 -9.246237,-5.532173 -9.633906,-9.286847l15.943638,-8.024581l-16.685391,-157.983593a13.658494,13.166449 0 0 0 -9.111702,-11.104721l-225.87661,-75.39948c-7.688334,-2.566386 -15.510102,-1.653776 -20.402614,2.266288c-3.354896,2.688903 -0.516285,5.280267 -0.128808,10.645782z"/>
   <path stroke="null" id="svg_40" fill="#dfe6f5" d="m130.362855,394.456019l2.065039,28.567235a12.865212,12.401751 0 0 0 12.923988,11.545749l4.778191,-0.030653l236.989826,-1.38422a6.647553,6.408079 0 0 0 6.569894,-7.0438l-2.039628,-19.293959l-261.287309,-12.360352z"/>
   <ellipse stroke="null" transform="matrix(1.5503991364813337,0,0,1.4945469925932038,-16506.479358539393,-16750.754986965203) " id="svg_41" fill="#fff" ry="4.09827" rx="2.04913" cy="11487.668118" cx="10833.16882"/>
   <path stroke="null" id="svg_42" fill="#d1d9ec" d="m173.234368,478.864745s-64.810343,-23.581471 -82.283713,-6.431305c0,0 -2.859277,5.206299 8.895539,6.431305l47.497826,3.675091s19.536393,1.837456 25.890348,-3.675091z"/>
   <path stroke="null" id="svg_43" fill="#dfe6f5" d="m171.504635,472.730496c-12.731645,-5.012337 -51.057233,-17.987859 -75.577043,-3.631899c0,0 27.13276,-2.898211 42.042328,5.409872s35.264449,4.356276 35.264449,4.356276l0.304545,-0.522a4.111224,3.96312 0 0 0 -2.034279,-5.612248z"/>
   <path stroke="null" id="svg_44" fill="#dfe6f5" d="m114.630459,176.753085l17.797435,246.270168a12.865212,12.401751 0 0 0 12.923988,11.545749l4.778191,-0.030653a45.74817,44.100121 0 0 1 -8.285581,-10.308444s-17.47337,-247.452295 -18.744171,-253.577352a12.938267,12.472174 0 0 0 -3.526476,-6.057683a14.389564,13.87119 0 0 0 -4.943386,12.158215z"/>
   <path stroke="null" id="svg_45" opacity="0.1" d="m114.630459,176.753085l17.797435,246.270168a12.865212,12.401751 0 0 0 12.923988,11.545749l4.778191,-0.030653a45.74817,44.100121 0 0 1 -8.285581,-10.308444s-17.47337,-247.452295 -18.744171,-253.577352a12.938267,12.472174 0 0 0 -3.526476,-6.057683a14.389564,13.87119 0 0 0 -4.943386,12.158215z"/>
  </g>
  <text style="cursor: move;" stroke="null" transform="rotate(5 238.75558471679702,243.155731201172) matrix(1.200217296789977,0,0,1.6322055185738233,-41.073170937230294,-178.96189725566796) " xml:space="preserve" text-anchor="start" font-family="Helvetica, Arial, sans-serif" font-size="36" id="svg_52" y="270.837783" x="161.123769" stroke-opacity="null" stroke-width="0" fill="#dfe6f5">Dineat ...</text>
  <text style="cursor: move;" stroke="null" transform="rotate(5 268.6449279785155,312.2467346191406) matrix(0.7625428159491837,0,0,1.1615288945925857,57.18792170172432,-45.4799165135854) " xml:space="preserve" text-anchor="start" font-family="Helvetica, Arial, sans-serif" font-size="36" id="svg_55" y="320.698393" x="171.108081" fill-opacity="null" stroke-opacity="null" stroke-width="0" fill="#dfe6f5">Voice Control</text>
  <text style="cursor: move;" stroke="null" transform="rotate(5 304.94512939453085,371.9114074707032) matrix(0.7299274237655959,0,0,0.9283587464479977,86.97241725415726,39.271840274011396) " xml:space="preserve" text-anchor="start" font-family="Helvetica, Arial, sans-serif" font-size="36" id="svg_56" y="370.280479" x="208.602335" fill-opacity="null" stroke-opacity="null" stroke-width="0" fill="#dfe6f5">Automation</text>
  <path transform="rotate(-23.77228546142578 315.02188110351557,72.03198242187504) " stroke="null" d="m278.206983,45.02915l-6.499234,51.785651a15.210973,11.637225 0 0 0 22.021341,11.478535l56.384311,-22.004934a15.176403,11.610777 0 0 0 2.419927,-19.5188l-49.850507,-29.807164a15.210973,11.637225 0 0 0 -24.475838,8.066712z" fill="#536dfe" opacity="0.1" id="svg_57"/>
  <path transform="rotate(-23.858322143554688 942.2078857421875,222.74401855468733) " stroke="null" d="m946.875579,242.077079l28.597597,-29.118584a11.413041,7.82796 0 0 0 -9.203226,-12.196639l-47.576002,-0.784579a11.413041,7.82796 0 0 0 -10.737098,10.966276l19.030401,29.903163a11.413041,7.82796 0 0 0 19.888328,1.230363z" fill="#536dfe" opacity="0.1" id="svg_58"/>
 </g>
</svg>