<?xml version="1.0" standalone="no"?>
<!DOCTYPE svg PUBLIC "-//W3C//DTD SVG 20010904//EN"
 "http://www.w3.org/TR/2001/REC-SVG-20010904/DTD/svg10.dtd">
<svg version="1.0" xmlns="http://www.w3.org/2000/svg"
 width="700.000000pt" height="700.000000pt" viewBox="0 0 700.000000 700.000000"
 preserveAspectRatio="xMidYMid meet">
<metadata>
Created by potrace 1.11, written by Peter Selinger 2001-2013
</metadata>
<g transform="translate(0.000000,700.000000) scale(0.100000,-0.100000)"
fill="#000000" stroke="none">
<path d="M4440 6825 c-149 -33 -262 -103 -443 -275 -150 -141 -154 -264 -11
-306 l52 -15 -23 -42 c-76 -138 -75 -326 3 -471 32 -60 118 -151 181 -191 49
-30 168 -75 201 -75 17 0 31 -20 67 -96 30 -64 43 -103 39 -118 -4 -16 -28
-35 -78 -61 -145 -74 -194 -123 -216 -216 -7 -26 -28 -75 -48 -110 -20 -35
-58 -101 -83 -146 -57 -101 -61 -106 -267 -316 -93 -95 -190 -197 -214 -227
-25 -30 -55 -63 -68 -73 -12 -10 -28 -24 -35 -31 -9 -10 -63 -13 -212 -12
-226 1 -206 -8 -191 86 4 25 9 54 10 65 8 54 20 131 21 135 1 3 5 30 9 61 9
67 10 69 61 99 53 32 81 65 92 109 5 20 9 141 8 269 0 163 3 232 11 232 6 0
21 9 34 20 23 20 24 27 25 158 1 94 -2 145 -11 163 -28 57 -139 65 -180 14
-19 -24 -20 -38 -19 -163 1 -151 7 -174 55 -190 33 -12 34 -16 20 -93 -18 -99
-72 -454 -72 -472 1 -10 -16 -29 -37 -42 -54 -36 -90 -90 -110 -167 -5 -20 -9
-102 -9 -182 1 -81 -1 -149 -4 -152 -3 -2 -34 -9 -69 -15 -106 -17 -121 -19
-194 -36 -78 -18 -144 -43 -185 -73 -27 -19 -45 -20 -408 -20 l-380 0 4 47 c2
26 8 51 14 57 6 6 176 11 457 12 247 1 458 3 470 3 28 1 53 26 49 49 -2 9 -7
51 -10 92 -4 41 -9 89 -11 105 -2 17 -7 57 -10 90 -3 33 -8 76 -10 95 -5 44
-13 133 -21 208 -3 31 -7 68 -9 82 -2 14 -7 57 -10 95 -4 39 -8 81 -10 95 -2
14 -7 59 -10 100 -3 41 -8 82 -10 90 -2 8 -7 47 -10 85 -3 39 -8 79 -10 90 -2
11 -4 26 -4 33 -1 6 -12 22 -26 34 -37 32 -1648 567 -1689 561 -78 -12 -105
-49 -101 -138 3 -69 15 -229 21 -295 2 -30 6 -84 9 -120 8 -134 16 -246 20
-290 2 -25 7 -88 10 -140 4 -52 8 -115 10 -140 3 -25 7 -85 10 -135 3 -49 7
-110 10 -135 4 -43 7 -84 20 -300 10 -154 14 -173 41 -197 14 -13 37 -23 52
-24 15 0 105 0 200 1 139 1 173 -2 169 -12 -3 -7 -11 -32 -18 -55 l-11 -43
-287 0 -287 0 -322 -202 -322 -203 0 -48 c0 -27 4 -46 8 -43 5 3 252 8 548 11
296 4 662 8 811 10 l273 3 0 -1432 0 -1431 -198 0 -197 0 -2 -192 -1 -193 509
0 509 0 1 23 c1 12 1 48 1 80 0 36 4 57 11 58 7 1 57 0 112 -2 55 -2 249 -4
432 -4 259 0 335 3 345 13 10 10 13 59 13 196 0 223 -4 233 -90 200 -14 -6
-16 -3 -12 12 6 19 21 213 19 246 -1 21 25 38 58 38 17 0 38 43 64 134 15 48
28 98 31 110 41 197 69 350 90 506 3 25 8 52 10 60 2 8 7 49 10 90 4 41 9 84
11 95 2 11 7 65 10 120 6 92 4 107 -21 180 -21 65 -25 85 -16 108 12 31 20 32
114 12 38 -8 121 -24 185 -35 64 -11 128 -23 142 -25 14 -3 46 -8 73 -11 53
-7 56 -13 26 -40 -38 -34 -107 -148 -128 -211 -26 -78 -31 -150 -16 -222 20
-98 62 -173 208 -380 37 -51 65 -96 63 -100 -2 -3 -7 -55 -11 -116 -3 -60 -8
-128 -10 -150 -2 -22 -7 -76 -10 -120 -10 -148 -14 -200 -21 -280 -3 -44 -7
-98 -9 -120 -9 -155 -18 -261 -21 -266 -2 -3 28 -6 66 -6 68 1 70 1 71 26 1
14 2 37 4 51 1 14 5 63 9 110 4 47 9 101 11 120 2 19 7 71 10 115 3 44 7 100
10 125 2 25 7 83 11 130 3 47 8 99 10 115 2 17 4 50 5 74 l2 45 33 -39 c36
-41 36 -37 20 -220 -3 -27 -7 -95 -11 -150 -3 -55 -8 -116 -10 -135 -2 -19 -7
-82 -10 -140 -4 -58 -8 -121 -10 -140 -3 -28 -16 -211 -17 -230 -1 -25 7 -29
67 -28 l65 1 1 31 c1 17 2 42 4 56 1 14 5 66 9 115 4 50 9 101 11 115 2 14 6
63 10 110 6 85 8 107 21 255 4 44 8 96 9 115 2 19 3 41 4 49 1 8 45 -29 99
-82 100 -99 117 -114 189 -174 l42 -34 114 65 c62 35 144 83 181 105 36 23 68
41 71 41 3 0 16 -22 30 -49 24 -48 24 -50 5 -56 -17 -5 -35 -41 -44 -91 -32
-163 -111 -280 -230 -338 -142 -68 -201 -140 -152 -184 55 -49 175 -62 286
-31 219 60 619 289 807 462 l41 38 -3 -28 c-2 -15 -6 -66 -10 -113 -3 -47 -7
-102 -9 -123 -4 -40 -5 -39 59 -39 78 0 72 -7 80 94 3 51 8 104 10 118 2 14 6
66 9 115 4 50 8 106 11 125 2 19 7 71 10 115 3 44 8 100 10 125 2 25 7 79 10
120 3 41 8 91 10 110 2 19 6 69 10 110 11 149 14 186 21 265 4 44 8 89 9 100
1 11 3 26 4 33 1 9 17 11 54 9 l52 -3 -1 -40 c-1 -37 -9 -170 -19 -294 -2 -30
-7 -93 -10 -140 -3 -47 -7 -107 -10 -135 -2 -27 -7 -88 -10 -135 -3 -47 -8
-107 -10 -135 -8 -102 -15 -192 -20 -260 -3 -38 -7 -104 -11 -146 -9 -121 -12
-168 -19 -271 l-6 -98 65 2 c59 2 66 4 67 23 0 11 2 27 4 37 2 9 6 56 10 105
3 48 8 106 10 128 2 22 7 74 10 115 3 41 8 95 10 120 2 25 7 79 10 120 3 41 8
95 10 120 2 25 7 79 10 120 3 41 7 95 10 120 10 109 15 170 20 240 4 41 8 89
10 105 2 17 7 71 10 120 4 50 8 104 10 120 2 17 7 62 10 100 4 39 8 84 11 100
15 112 65 465 69 485 2 14 6 45 10 70 8 55 14 92 19 128 3 15 10 65 16 112 6
47 13 96 15 110 3 14 7 45 11 70 3 25 9 72 14 105 5 33 12 78 15 100 4 22 10
67 15 100 5 33 12 83 15 110 3 28 10 73 15 100 5 28 12 73 15 100 3 28 10 75
15 105 5 30 12 75 15 100 7 54 26 189 30 210 1 8 6 40 10 70 4 30 9 64 11 75
2 11 6 43 9 70 3 28 8 57 10 65 2 8 7 35 10 60 3 25 8 61 11 81 l5 35 -268 -1
c-296 -2 -294 -2 -291 -12 2 -8 -10 -97 -18 -138 -3 -11 -7 -38 -10 -60 -4
-38 -40 -272 -49 -325 -2 -14 -14 -88 -25 -165 -11 -77 -23 -153 -27 -170 l-6
-30 -9 30 c-9 30 -14 51 -22 93 -7 33 -15 155 -21 310 -4 106 -11 148 -31 210
-35 107 -34 101 -39 257 -9 271 -13 301 -46 425 -39 146 -113 295 -196 398
-56 69 -125 113 -350 226 -190 95 -214 110 -229 141 -16 34 -15 37 9 88 38 80
59 145 75 240 11 66 7 335 -7 417 -7 41 -14 84 -16 95 -19 119 -37 158 -101
213 -63 53 -199 124 -303 156 -100 32 -254 41 -341 21z m-100 -2940 c0 -10
-11 -15 -32 -16 -18 0 -40 -2 -48 -4 -54 -10 -193 -25 -198 -21 -3 3 6 14 19
25 13 10 62 50 109 89 l85 69 32 -63 c18 -35 33 -71 33 -79z m-543 -384 c16
-44 49 -59 148 -66 49 -4 105 -9 125 -11 19 -1 100 -6 180 -9 80 -4 156 -8
169 -9 13 -1 25 -8 27 -16 1 -8 5 -35 8 -60 4 -25 15 -74 26 -110 10 -36 21
-80 24 -99 6 -33 6 -33 -27 -27 -17 3 -63 8 -102 11 -38 4 -83 8 -100 10 -188
24 -669 23 -835 0 -43 -6 -144 -23 -185 -31 -64 -11 -204 -64 -260 -97 -130
-76 -172 -149 -190 -322 -10 -90 -59 -357 -101 -540 -53 -235 -166 -654 -208
-773 -11 -31 -13 -49 -6 -62 12 -23 129 -96 235 -147 44 -21 82 -39 84 -40 7
-4 -49 -218 -75 -286 l-26 -67 -30 25 -30 25 -41 -34 c-55 -43 -131 -87 -307
-175 -134 -68 -148 -72 -217 -75 -40 -1 -76 0 -81 3 -10 7 -10 2846 -1 2856 4
3 193 8 420 11 228 3 556 7 729 9 173 2 378 4 455 4 l141 1 -1 44 c0 29 -7 51
-19 65 -19 21 -19 21 20 21 34 0 41 -4 51 -29z m1403 -1657 c85 -3 187 -7 225
-9 39 -2 160 -7 270 -10 110 -4 218 -8 240 -9 l40 -2 -1 -44 c0 -45 -12 -228
-19 -305 -2 -22 -6 -83 -10 -135 -3 -52 -8 -111 -10 -130 -2 -19 -7 -82 -10
-140 -4 -57 -9 -113 -11 -124 -2 -11 -4 -44 -5 -73 -1 -29 -6 -50 -11 -47 -4
3 -8 12 -8 20 0 27 -60 161 -81 180 -19 17 -20 17 -41 -3 l-21 -21 -93 69
c-51 38 -96 69 -99 69 -12 0 -60 42 -61 53 -1 7 -2 19 -3 28 -2 35 -142 164
-411 380 -85 68 -193 157 -239 197 l-84 74 144 -6 c79 -3 214 -9 299 -12z"/>
<path d="M2076 6633 c-6 -14 -5 -15 5 -6 7 7 10 15 7 18 -3 3 -9 -2 -12 -12z"/>
<path d="M2187 6599 c7 -7 15 -10 18 -7 3 3 -2 9 -12 12 -14 6 -15 5 -6 -5z"/>
<path d="M2076 6553 c-6 -14 -5 -15 5 -6 7 7 10 15 7 18 -3 3 -9 -2 -12 -12z"/>
<path d="M2150 6560 c0 -5 5 -10 11 -10 5 0 7 5 4 10 -3 6 -8 10 -11 10 -2 0
-4 -4 -4 -10z"/>
<path d="M2270 6560 c0 -5 5 -10 11 -10 5 0 7 5 4 10 -3 6 -8 10 -11 10 -2 0
-4 -4 -4 -10z"/>
<path d="M2350 6560 c0 -5 5 -10 11 -10 5 0 7 5 4 10 -3 6 -8 10 -11 10 -2 0
-4 -4 -4 -10z"/>
<path d="M6275 6560 c-3 -5 -1 -10 4 -10 6 0 11 5 11 10 0 6 -2 10 -4 10 -3 0
-8 -4 -11 -10z"/>
<path d="M6355 6560 c-3 -5 -1 -10 4 -10 6 0 11 5 11 10 0 6 -2 10 -4 10 -3 0
-8 -4 -11 -10z"/>
<path d="M2195 6520 c3 -5 8 -10 11 -10 2 0 4 5 4 10 0 6 -5 10 -11 10 -5 0
-7 -4 -4 -10z"/>
<path d="M1996 6473 c-6 -14 -5 -15 5 -6 7 7 10 15 7 18 -3 3 -9 -2 -12 -12z"/>
<path d="M2073 6475 c0 -8 4 -12 9 -9 4 3 8 9 8 15 0 5 -4 9 -8 9 -5 0 -9 -7
-9 -15z"/>
<path d="M2150 6480 c0 -5 5 -10 10 -10 6 0 10 5 10 10 0 6 -4 10 -10 10 -5 0
-10 -4 -10 -10z"/>
<path d="M2270 6480 c0 -5 5 -10 11 -10 5 0 7 5 4 10 -3 6 -8 10 -11 10 -2 0
-4 -4 -4 -10z"/>
<path d="M2115 6440 c-3 -5 -1 -10 4 -10 6 0 11 5 11 10 0 6 -2 10 -4 10 -3 0
-8 -4 -11 -10z"/>
<path d="M2195 6440 c-3 -5 -1 -10 4 -10 6 0 11 5 11 10 0 6 -2 10 -4 10 -3 0
-8 -4 -11 -10z"/>
<path d="M2236 6362 c-3 -5 1 -9 9 -9 8 0 12 4 9 9 -3 4 -7 8 -9 8 -2 0 -6 -4
-9 -8z"/>
<path d="M2110 6320 c0 -5 5 -10 11 -10 5 0 7 5 4 10 -3 6 -8 10 -11 10 -2 0
-4 -4 -4 -10z"/>
<path d="M2190 6320 c0 -5 5 -10 11 -10 5 0 7 5 4 10 -3 6 -8 10 -11 10 -2 0
-4 -4 -4 -10z"/>
<path d="M2035 6240 c3 -5 8 -10 11 -10 2 0 4 5 4 10 0 6 -5 10 -11 10 -5 0
-7 -4 -4 -10z"/>
<path d="M2110 6240 c0 -5 5 -10 11 -10 5 0 7 5 4 10 -3 6 -8 10 -11 10 -2 0
-4 -4 -4 -10z"/>
<path d="M6675 5600 c-3 -5 -1 -10 4 -10 6 0 11 5 11 10 0 6 -2 10 -4 10 -3 0
-8 -4 -11 -10z"/>
<path d="M6550 5561 c0 -6 4 -13 10 -16 6 -3 7 1 4 9 -7 18 -14 21 -14 7z"/>
<path d="M6510 5520 c0 -5 5 -10 11 -10 5 0 7 5 4 10 -3 6 -8 10 -11 10 -2 0
-4 -4 -4 -10z"/>
<path d="M6550 5481 c0 -6 4 -13 10 -16 6 -3 7 1 4 9 -7 18 -14 21 -14 7z"/>
<path d="M6510 5440 c0 -5 5 -10 11 -10 5 0 7 5 4 10 -3 6 -8 10 -11 10 -2 0
-4 -4 -4 -10z"/>
<path d="M390 4679 c0 -5 5 -7 10 -4 6 3 10 8 10 11 0 2 -4 4 -10 4 -5 0 -10
-5 -10 -11z"/>
<path d="M353 4635 c0 -8 4 -12 9 -9 5 3 6 10 3 15 -9 13 -12 11 -12 -6z"/>
<path d="M430 4639 c0 -5 5 -7 10 -4 6 3 10 8 10 11 0 2 -4 4 -10 4 -5 0 -10
-5 -10 -11z"/>
<path d="M513 4435 c0 -8 4 -12 9 -9 5 3 6 10 3 15 -9 13 -12 11 -12 -6z"/>
<path d="M435 1040 c3 -5 8 -10 11 -10 2 0 4 5 4 10 0 6 -5 10 -11 10 -5 0 -7
-4 -4 -10z"/>
</g>
</svg>
