<svg width="1000.0000000000001" height="1000.0000000000001" xmlns="http://www.w3.org/2000/svg">
 <title>recording</title>

 <g stroke="null">
  <title>background</title>
  <rect fill-opacity="0" fill="#ffffff" id="canvas_background" height="1668.662881" width="1668.662881" y="-1" x="-1" stroke="null"/>
 </g>
 <g stroke="null">
  <title>Layer 1</title>
  <path id="svg_106" opacity="0.1" fill="#536dfe" d="m898.54241,98.74438l28.5976,-29.11859a11.41304,7.82796 0 0 0 -9.20323,-12.19664l-47.576,-0.78458a11.41304,7.82796 0 0 0 -10.7371,10.96628l19.0304,29.90316a11.41304,7.82796 0 0 0 19.88833,1.23037z" stroke="null"/>
  <path id="svg_107" opacity="0.1" fill="#536dfe" d="m42.98238,843.82612l-4.62657,54.08601a10.82814,12.15416 0 0 0 15.67619,11.98842l40.13795,-22.98241a10.80353,12.12654 0 0 0 1.72266,-20.38584l-35.48677,-31.13122a10.82814,12.15416 0 0 0 -17.42346,8.42504z" stroke="null" transform="rotate(-24.741348266601562 69.18956756591724,872.0284423828124) "/>
  <path id="svg_108" opacity="0.1" fill="#536dfe" d="m30.31531,340.02447l-4.62657,40.28361a10.82815,9.0525 0 0 0 15.6762,8.92905l40.13798,-17.11745a10.80354,9.03192 0 0 0 1.72266,-15.1835l-35.4868,-23.18674a10.82815,9.0525 0 0 0 -17.42347,6.27503z" stroke="null" transform="rotate(45.00006866455078 56.522499084472585,361.0297546386719) "/>
  <path id="svg_110" opacity="0.1" fill="#536dfe" d="m81.3876,53.71079l-27.88659,7.28751a6.51182,5.49693 0 0 0 -2.28433,9.45372l20.76661,14.82545a6.52665,5.50946 0 0 0 10.50198,-2.75473l7.11998,-22.12547a6.52665,5.50946 0 0 0 -8.21765,-6.68648z" stroke="null"/>
  <path id="svg_111" opacity="0.1" fill="#536dfe" d="m-2829.71537,-3423.41648l-3.95559,1.37869a0.92367,1.03994 0 0 0 -0.32402,1.7885l2.94565,2.80475a0.92578,1.04231 0 0 0 1.48966,-0.52115l1.00994,-4.18581a0.92578,1.04231 0 0 0 -1.16564,-1.26498z" stroke="null"/>
  <path id="svg_112" opacity="0.1" fill="#536dfe" d="m1041.8,375.66l-18.8,5.82a4.39,4.39 0 0 0 -1.54,7.55l14,11.84a4.4,4.4 0 0 0 7.08,-2.2l4.8,-17.67a4.4,4.4 0 0 0 -5.54,-5.34z" stroke="null"/>
  <g id="svg_49" stroke="null">
   <rect x="10809.86001" y="11551.917728" width="20.4299" height="310.53452" fill="#3f3d56" id="svg_9" transform="matrix(1.5503991364813337,0,0,1.4945469925932038,-16506.479358539393,-16750.754986965203) " stroke="null"/>
   <polygon points="535.0209627151489,501.91515827178955 535.0209627151489,514.1288728713989 18.727112770080566,520.2358064651489 18.727112770080566,508.0222749710083 19.455410957336426,507.5636568069458 110.58376789093018,450.0080842971802 493.84325885772705,450.0080842971802 535.0209627151489,501.91515827178955 " fill="#3f3d56" id="svg_10" stroke="null"/>
   <path d="m443.16528,428.63526s-114.02822,9.16008 -76.0188,36.64014s76.0188,-18.32007 76.0188,-18.32007l0,-18.32007z" fill="#ffb9b9" id="svg_11" stroke="null"/>
   <polygon points="535.0209627151489,502.2823152542114 535.0209627151489,514.1288728713989 18.727112770080566,520.2358064651489 18.727112770080566,508.0222749710083 19.455410957336426,507.5636568069458 535.0209627151489,502.2823152542114 " opacity="0.1" id="svg_12" stroke="null"/>
   <path d="m614.2076,279.02135l2.77292,-10.02378s-37.61488,64.984 -40.78233,71.09069s-57.0141,58.01354 -63.349,67.17358a64.71504,62.38372 0 0 1 -15.83725,15.26679l-60.1816,0s-12.66986,39.69348 6.33494,42.74683s79.18626,15.26672 91.85606,15.26672s91.85606,-70.22694 91.85606,-70.22694l-12.6698,-131.29389z" fill="#939af9" id="svg_13" stroke="null"/>
   <polygon points="626.8778352737427,721.7554597854614 607.8723421096802,978.2362337112427 626.8778352737427,978.2362337112427 649.0491609573364,715.6495637893677 626.8778352737427,721.7554597854614 " fill="#3f3d56" id="svg_14" stroke="null"/>
   <polygon points="858.1003694534302,691.2220125198364 839.0962190628052,947.7027864456177 858.1003694534302,947.7027864456177 880.2730379104614,685.1161165237427 858.1003694534302,691.2220125198364 " fill="#3f3d56" id="svg_15" stroke="null"/>
   <polygon points="892.9433259963989,721.7554597854614 873.9376497268677,978.2362337112427 892.9433259963989,978.2362337112427 915.1144685745239,715.6495637893677 892.9433259963989,721.7554597854614 " fill="#3f3d56" id="svg_16" stroke="null"/>
   <polygon points="598.3700227737427,697.3289461135864 579.3647737503052,953.8107576370239 598.3700227737427,953.8107576370239 620.5425691604614,691.2220125198364 598.3700227737427,697.3289461135864 " fill="#3f3d56" id="svg_17" stroke="null"/>
   <polygon points="965.7945222854614,370.6213655471802 911.9474153518677,743.1292390823364 592.0351228713989,730.9164705276489 594.1888704299927,696.5354280471802 598.3700227737427,630.1549348831177 845.4301424026489,642.3688631057739 886.6083040237427,370.6213655471802 965.7945222854614,370.6213655471802 " fill="#3f3d56" id="svg_18" stroke="null"/>
   <path d="m965.79459,370.6217l-53.84666,372.50808l-319.91246,-12.21344l2.15364,-34.38069c66.7701,2.47321 292.41923,-11.41948 292.41923,-11.41948c0,-48.73145 44.40771,-239.50438 62.33521,-314.49453l16.85104,0.00006z" opacity="0.1" id="svg_19" stroke="null"/>
   <path d="m405.15588,822.51675s-9.5024,70.22695 -28.50705,82.44032s79.18631,27.4801 79.18631,27.4801l6.33493,-91.60035l-57.01419,-18.32007z" fill="#939af9" id="svg_20" stroke="null"/>
   <path d="m725.06837,853.0502s15.83732,18.32007 19.0047,30.53346s50.6792,18.32007 50.6792,18.32007l34.84194,-36.6402s-44.34422,-36.64009 -57.01408,-36.64009s-47.51176,24.42676 -47.51176,24.42676z" fill="#939af9" id="svg_21" stroke="null"/>
   <circle cx="11060.12631" cy="11307.780398" r="49.031769" fill="#ffb9b9" id="svg_22" transform="matrix(1.5503991364813337,0,0,1.4945469925932038,-16506.479358539393,-16750.754986965203) " stroke="null"/>
   <path d="m620.5425,199.63439s38.0094,70.22692 31.6745,82.4403s82.35372,-58.01354 82.35372,-58.01354s-31.67452,-48.85353 -31.67452,-64.12025s-82.3537,39.69349 -82.3537,39.69349z" fill="#ffb9b9" id="svg_23" stroke="null"/>
   <path d="m655.38445,559.92908s-243.89367,-36.64014 -253.39602,48.85353s-44.3443,195.41408 -47.51175,204.57411s104.52592,61.06689 117.19566,42.74682s34.84195,-164.88062 28.50705,-177.09399s-9.5024,-27.4801 3.16746,-24.42676s152.03762,30.53345 180.54467,21.37341s101.35847,-131.29383 101.35847,-131.29383l-129.86554,15.26671z" fill="#2f2e41" id="svg_24" stroke="null"/>
   <path d="m655.38445,559.92908s-243.89367,-36.64014 -253.39602,48.85353s-44.3443,195.41408 -47.51175,204.57411s104.52592,61.06689 117.19566,42.74682s34.84195,-164.88062 28.50705,-177.09399s-9.5024,-27.4801 3.16746,-24.42676s152.03762,30.53345 180.54467,21.37341s101.35847,-131.29383 101.35847,-131.29383l-129.86554,15.26671z" opacity="0.1" id="svg_25" stroke="null"/>
   <path d="m649.04955,541.60903l9.5024,76.33361s-152.03761,54.96022 -95.02351,143.50721s120.36311,137.40053 120.36311,137.40053s101.35844,-54.96021 101.35844,-70.22694s-123.53056,-100.76038 -107.69331,-100.76038s243.89368,-12.21344 196.38193,-134.34718s-224.88906,-51.90686 -224.88906,-51.90686l0,0.00001z" fill="#2f2e41" id="svg_26" stroke="null"/>
   <path d="m401.98843,908.01042s-25.3396,-27.48009 -25.3396,-21.37337s-72.85137,42.74682 -85.52117,45.80017s-31.67449,9.16008 -6.33493,18.32007s186.87958,12.21343 186.87958,6.10671s6.33493,-64.12023 -6.33493,-58.01354s-60.1815,21.37333 -63.34895,9.15996z" fill="#2f2e41" id="svg_27" stroke="null"/>
   <path d="m775.7476,886.63705s-34.84195,-9.16008 -38.0094,0s-6.33493,45.80017 -34.84197,58.01355s-38.0094,30.53344 0,33.58679s142.53528,-67.17358 142.53528,-79.38696s-12.66986,-48.85353 -19.00479,-45.80018s-22.1721,30.53344 -50.67912,33.5868z" fill="#2f2e41" id="svg_28" stroke="null"/>
   <rect x="10773.08618" y="11827.721418" width="93.97755" height="36.77382" fill="#3f3d56" id="svg_29" transform="matrix(1.5503991364813337,0,0,1.4945469925932038,-16506.479358539393,-16750.754986965203) " stroke="null"/>
   <path d="m734.57071,205.74107s-11.85553,-30.56277 -32.8511,-12.22804s-62.1724,64.13493 -62.1724,64.13493s-25.33961,9.1601 -34.84194,24.42678s-9.50241,116.02711 9.50239,149.61393s19.00469,91.60032 25.33959,106.86706s0,30.53345 22.17213,30.53345s-12.66983,-24.42675 60.18157,0s155.20508,54.96019 161.53998,33.58679s-9.50239,-33.58679 0,-42.74684s0,-12.21341 -6.33493,-33.58681s-12.66987,-24.42673 -15.83732,-51.90685s0,-54.96018 -6.33494,-67.1736s-6.33493,-30.53342 -6.33493,-61.06687s-19.00459,-91.6004 -53.84653,-109.92054s-60.18156,-30.53339 -60.18156,-30.53339l-0.00001,0z" fill="#575a89" id="svg_30" stroke="null"/>
   <path d="m566.90552,67.7691c17.65638,-16.61467 36.21304,-33.7642 59.7175,-41.00064c31.37172,-9.65857 66.34623,0.47645 93.35447,18.64249c5.8264,3.91894 11.53218,8.35618 15.03337,14.31544c3.21167,5.46644 4.33492,11.81041 5.3532,18.01553c3.58583,21.85144 6.52433,43.99486 4.77122,66.05337s-8.50027,44.22988 -22.59242,61.69119a132.16052,127.39952 0 0 1 -28.15773,-44.7175c-1.60415,-4.39898 -3.04484,-9.03421 -6.28531,-12.49601s-8.94426,-5.32455 -13.01161,-2.80078c-5.6512,3.50656 -4.94112,12.87062 -10.90788,15.85215a10.37952,10.0056 0 0 1 -6.52097,0.65902c-15.55535,-2.58388 -20.9728,-20.95548 -31.09655,-32.62971c-14.92183,-17.20717 -35.81352,-16.11818 -56.20507,-21.06331c-23.66385,-5.7387 -17.80436,-27.01582 -3.45222,-40.52124z" fill="#2f2e41" id="svg_31" stroke="null"/>
   <ellipse cx="10929.27814" cy="11520.981218" rx="41.99571" ry="9.1295" fill="#a09bff" id="svg_32" transform="matrix(1.5503991364813337,0,0,1.4945469925932038,-16506.479358539393,-16750.754986965203) " stroke="null"/>
   <path d="m432.9198,469.42314l-1.27433,-64.96723c-0.28509,-14.53403 0.25419,-31.0066 11.46315,-40.73089c7.08262,-6.14445 17.73159,-8.78572 22.17536,-16.91079c2.42077,-4.42614 2.46644,-9.65956 2.45629,-14.66315l-0.17945,-88.43275" fill="#a09bff" stroke-miterlimit="10" stroke-width="6" id="svg_33" stroke="#a09bff"/>
   <rect x="10937.19038" y="11352.389738" width="19.47627" height="37.73528" rx="7.99999" fill="#a09bff" id="svg_34" transform="matrix(1.5503991364813337,0,0,1.4945469925932038,-16506.479358539393,-16750.754986965203) " stroke="null"/>
   <path d="m552.60147,455.0997s-104.98185,-26.84386 -113.54393,-3.75406s89.6289,44.4632 89.6289,44.4632l41.17685,0l-17.26182,-40.70914z" fill="#ffb9b9" id="svg_35" stroke="null"/>
   <path d="m772.58013,254.59462s-47.51175,33.58679 -60.18155,82.44032s-22.17216,100.76038 -22.17216,100.76038l-145.70271,18.32007s-12.66987,48.85352 6.33493,51.90686s161.53998,12.21344 183.71212,0s98.19095,-164.88062 95.0235,-180.14734s-9.50239,-70.22693 -57.01413,-73.28029z" fill="#939af9" id="svg_36" stroke="null"/>
   <path d="m204.74863,471.69909l51.46705,3.9813l73.38815,-4.59379l-1.27714,-0.11638l-67.98096,-6.31494c-15.56719,-5.51255 -4.76546,-37.97535 -4.76546,-37.97535l-52.08971,2.55418l-4.14279,0.20214c-18.42646,41.65035 5.40086,42.26284 5.40086,42.26284z" fill="#d1d9ec" id="svg_37" stroke="null"/>
   <path d="m204.74863,471.69909l51.46705,3.9813l73.38815,-4.59379l-1.27714,-0.11638l-74.17606,2.56639l-49.71975,-5.2063c-14.10575,-3.57705 -6.0299,-27.18913 -0.94038,-39.09624l-4.14279,0.20213c-18.4264,41.6504 5.40092,42.26289 5.40092,42.26289z" opacity="0.1" id="svg_38" stroke="null"/>
   <path d="m119.44504,175.24065l15.41422,215.45454l0,26.00314c0.47019,6.53546 3.69389,17.91356 10.49259,17.87067l12.62875,-10.44119l227.35983,0c3.91397,-0.02454 -9.24624,-5.53218 -9.63391,-9.28685l15.94364,-8.02458l-16.68539,-157.9836a13.65849,13.16645 0 0 0 -9.1117,-11.10472l-225.87661,-75.39948c-7.68834,-2.56638 -15.5101,-1.65377 -20.40262,2.26629c-3.35489,2.6889 -0.51628,5.28027 -0.1288,10.64578z" fill="#4c4c56" id="svg_39" stroke="null"/>
   <path d="m130.36285,394.45602l2.06504,28.56723a12.86521,12.40175 0 0 0 12.92399,11.54575l4.77819,-0.03065l236.98983,-1.38422a6.64755,6.40808 0 0 0 6.56989,-7.0438l-2.03962,-19.29396l-261.28731,-12.36035l-0.00001,0z" fill="#dfe6f5" id="svg_40" stroke="null"/>
   <ellipse cx="10833.16882" cy="11487.668118" rx="2.04913" ry="4.09827" fill="#fff" id="svg_41" transform="matrix(1.5503991364813337,0,0,1.4945469925932038,-16506.479358539393,-16750.754986965203) " stroke="null"/>
   <path d="m173.23437,478.86475s-64.81035,-23.58148 -82.28372,-6.43131c0,0 -2.85927,5.2063 8.89554,6.43131l47.49783,3.67509s19.53639,1.83745 25.89035,-3.67509z" fill="#d1d9ec" id="svg_42" stroke="null"/>
   <path d="m171.50464,472.7305c-12.73165,-5.01234 -51.05724,-17.98786 -75.57705,-3.6319c0,0 27.13276,-2.89821 42.04233,5.40987s35.26445,4.35628 35.26445,4.35628l0.30454,-0.522a4.11122,3.96312 0 0 0 -2.03427,-5.61225z" fill="#dfe6f5" id="svg_43" stroke="null"/>
   <path d="m114.63046,176.75308l17.79743,246.27017a12.86521,12.40175 0 0 0 12.92399,11.54575l4.77819,-0.03065a45.74817,44.10012 0 0 1 -8.28558,-10.30844s-17.47337,-247.4523 -18.74417,-253.57736a12.93827,12.47217 0 0 0 -3.52647,-6.05768a14.38956,13.87119 0 0 0 -4.94339,12.15822l0,-0.00001z" fill="#dfe6f5" id="svg_44" stroke="null"/>
   <path d="m114.63046,176.75308l17.79743,246.27017a12.86521,12.40175 0 0 0 12.92399,11.54575l4.77819,-0.03065a45.74817,44.10012 0 0 1 -8.28558,-10.30844s-17.47337,-247.4523 -18.74417,-253.57736a12.93827,12.47217 0 0 0 -3.52647,-6.05768a14.38956,13.87119 0 0 0 -4.94339,12.15822l0,-0.00001z" opacity="0.1" id="svg_45" stroke="null"/>
  </g>
  <text fill="#dfe6f5" stroke-width="0" stroke-opacity="null" x="188.230666" y="312.836691" id="svg_52" font-size="36" font-family="Helvetica, Arial, sans-serif" text-anchor="start" xml:space="preserve" transform="rotate(4 263.6442871093737,303.70596313476557) matrix(1.4881578775511028,0,0,2.2483104675006964,-94.25686246439474,-371.85858901831983) " stroke="null">Dineat</text>
  <path id="svg_57" opacity="0.1" fill="#536dfe" d="m278.20698,45.02915l-6.49923,51.78565a15.21097,11.63723 0 0 0 22.02134,11.47854l56.38431,-22.00494a15.1764,11.61078 0 0 0 2.41993,-19.5188l-49.85051,-29.80716a15.21097,11.63723 0 0 0 -24.47584,8.06671z" stroke="null" transform="rotate(-23.77228546142578 315.02188110351557,72.03198242187504) "/>
  <path id="svg_58" opacity="0.1" fill="#536dfe" d="m946.87558,242.07708l28.5976,-29.11859a11.41304,7.82796 0 0 0 -9.20323,-12.19663l-47.576,-0.78458a11.41304,7.82796 0 0 0 -10.7371,10.96627l19.0304,29.90317a11.41304,7.82796 0 0 0 19.88833,1.23036z" stroke="null"/>
 </g>
</svg>