<svg xmlns="http://www.w3.org/2000/svg" xmlns:xlink="http://www.w3.org/1999/xlink" width="1000" height="1000"><style><![CDATA[.B{opacity:.1}.C{fill:#2f2e41}.D{fill:#e6e6e6}.E{fill:#fbbebe}.F{fill:#8c9eff}]]></style><path fill="#fff" fill-opacity="0" d="M-1-1h1002v1002H-1z"/><ellipse cx="8114.234" cy="6028.936" rx="352" ry="18" transform="matrix(1.086548 0 0 1.250604 -8386.545599 -6588.699929)" class="D"/><ellipse cx="8409.255" cy="5779.685" rx="2.5" ry="4.5" transform="matrix(1.021167 -.427269 .371219 1.175351 -9192.823718 -2561.541901)" fill="#ffb8b8"/><path d="M512.533 262.44h-4.345V125.442a68.889 79.291 0 0 0-68.889-79.291H187.126a68.889 79.291 0 0 0-68.889 79.291v751.58a68.889 79.291 0 0 0 68.889 79.291H439.3a68.889 79.291 0 0 0 68.889-79.291V359.958h4.345V262.44z"/><path d="M442.078 66.78h-32.917a24.442 28.132 0 0 1-22.63 38.757H242.065a24.442 28.132 0 0 1-22.63-38.757H188.69a51.446 59.213 0 0 0-51.446 59.213v750.478a51.446 59.213 0 0 0 51.446 59.213h253.388a51.446 59.213 0 0 0 51.446-59.213V125.994a51.446 59.213 0 0 0-51.446-59.213h0z" fill="#fff"/><path d="M260.8 478.606h89.814v9.6H260.8z" class="F"/><path d="M260.8 511.815h156.538v9.6H260.8zm0 33.21h156.385v9.6H260.8z" class="D"/><path d="M175.462 478.748h66.724v76.8h-66.724zM260.8 671.583h89.814v9.6H260.8z" class="F"/><path d="M260.8 704.8h156.538v9.6H260.8zm0 33.2h156.385v9.6H260.8z" class="D"/><path d="M175.462 671.725h66.724v76.8h-66.724z" class="F"/><path d="M769.083 465.454s29.07-9.193 32.046 0h-32.046z" class="B"/><g transform="matrix(1.182633 0 0 1.210415 -6972.280935 -4363.006444)"><path d="M6344.6 3892.958s6.78-35.573 28.61-35.754l15.946 32.826-10.634 7.334s-23.108.734-33.923-4.406z" fill="#d0cde1"/><path d="M6389.157 3890.02l-10.634 7.343s-16.213.515-27.886-2.346a32.161 32.161 0 0 1-6.037-2.06 2.108 2.108 0 0 1 .124-.572 1.147 1.147 0 0 1 0-.134 80.508 80.508 0 0 1 4.129-13.066 81.71 81.71 0 0 1 2.251-4.883c3.195-6.15 7.687-12.18 13.83-15.164a18.884 18.884 0 0 1 7.277-1.907h.973l.343.725 5.4 11.09 10.23 20.973z" opacity=".502"/><use xlink:href="#B" fill="#d0cde1"/><use xlink:href="#B" opacity=".503"/><path d="M6368.616 3856.29s-1.822 22.374-15.765 22.736c0 0-3.948-2.384-9.26-6.352-12.245-9.165-31.682-26.78-26.312-43.164 7.706-23.47 45.1 19.808 45.1 19.808l2.86 3.223 3.366 3.75z" class="E"/><path d="M6368.615 3856.288s-1.822 22.374-15.765 22.736c0 0-3.948-2.384-9.26-6.352l-1.192-1.526a18.206 18.206 0 0 0 7.63 2.05c3.5.076 7.44-1.22 9.966-6.275a79.891 79.891 0 0 0 3.815-8.879 26.186 26.186 0 0 0 1.411-5.5l3.395 3.746z" class="B"/><path d="M6362.568 3896.81l-19.103-24.567a18.119 18.119 0 0 0 7.63 2.06c3.5.076 7.44-1.22 9.976-6.285a79.538 79.538 0 0 0 3.815-8.879c1.745-4.95 1.707-7.5 1.1-8.354s3.89 3.328 6.056 5.38l.076.076 1.02.954 5.684 11.368.057.448c.484 3.376 2.277 24.767-16.31 27.8z" class="D"/><path d="M6472.415 4368.83s-15.4 10.1-23.1 8.583-15.593 2.575-15.593 2.575a46.407 46.407 0 0 1-19.446 12.656c-12.465 4.215-29.88 2.565-39.78-.744-4.692-1.555-5.064-3.576-2.813-6.056 2.508-2.775 8.26-6.123 14.916-10.08 12.646-7.515 26.217-22.374 26.217-22.374s.18-3.662 2.384-5.312a28.46 28.46 0 0 0 3.7-3.815c1.965-2.327 3.815-4.768 3.815-4.768l45.3 1.47a142.45 142.45 0 0 0 1.373 6.609c.505 2.737.9 5.522.64 6.6-.553 2.375 1.287 4.578 1.287 4.578l.8 7.486.3 2.594zm94.825 12.646c-.544 2.193-1.2 6.132-1.5 7.982l-.153 1s-3.672 8.068-24.023 11.006-20.352-6.8-20.352-6.8l.2-2.623c.353-4.292 1.087-12.5 1.62-14.248.734-2.384-.544-12.837-.544-12.837l-.372-18.56 33.748-3.5a64.525 64.525 0 0 0 1.087 7.515 9.538 9.538 0 0 0 1.478 3.815c1.83 2.03 2.937 11.005 2.937 11.005s6.578 13.276 5.863 16.213z" class="C"/><path d="M6468.052 4340.954l1.373 6.6c-4.892.9-26.284 4.606-31.634 2.012-6.046-2.937-19.074-4.587-19.074-4.587l.22-.744c1.965-2.327 3.815-4.768 3.815-4.768l45.3 1.478zm88.888 9.526c-8.583-1.45-27.295 2.06-34.676 3.567l-.153-7.63 33.742-3.5a64.538 64.538 0 0 0 1.087 7.553z" class="B"/><path d="M6576.024 4072.5l-.734 25.855s.954 39.426-1.83 45.663-2.756 31.357-2.756 31.357 1.84 11.92-.18 14.477-.553 12.112.954 17.062.172 17.243.172 17.243l-.362 69.314s-2.012 17.968-4.587 20.542a6.008 6.008 0 0 0-1.459 5.865s-2.2 10.262-1.65 12.1 1.65 6.046-2.565 8.06-3.128 8.44-3.128 8.44c-10.08-2.384-38.682 4.044-38.682 4.044s-5.722-11.74-8.078-19.627 3.49-12.837 7.334-13.352-2.747-7.344-2.747-7.344.734-.954-1.1-7.515.362-23.48.954-27.876l3.3-25.673s-1.46-26.95-.362-28.057 4.768-11.74 2.937-15.26-4.768-26.408-4.768-27.657-2.384-30.995-2.384-30.995-2.193-20.724-1.65-25.12-1.47-20.714-1.47-20.714c0-13.58-7.877-28.248-7.877-28.248l-.2.525-17.042 44.823s-2.747 13.562-5.14 21.267a139.373 139.373 0 0 0-3.576 15.917l-.162.954-.162 1.03-.114.744s1.278 9.718-.734 12.837-4.3 12.465-4.3 15.068l.172 12.484s.744 19.618-1.278 21.82-.954 4.034-.954 4.034 3.31 14.85 1.84 18.7-.362 12.827-.362 12.827l-3.233 29.85c-.324 1.487-2.384 12.837-.19 13.752s6.418 6.418 6.418 6.418.954 24.024-2.375 25.855-1.478 11.187-1.478 11.187-26.58 5.14-32.635 2.2-19.074-4.587-19.074-4.587l1.822-6.027c-.1.2-1.316 2.165-2.184-5.34-.954-7.887 6.8-4.034 6.8-4.034s6.046 1.47-3.68-8.068-4.95-19.255-4.4-19.255 1.83-14.115 1.83-14.115 1.65-8.44.362-15.04-2.375-27.142-2.375-27.142.954-15.583-.734-21.267 1.1-15.955 1.65-18.35-1.65-24.2-1.65-24.2 1.84-10.262.734-17.777 1.106-35.2 1.106-35.2l3.3-31.91s2.375-9.9 2.012-13.933 2.747-18.12 2.747-18.12-.362-5.14 1.47-8.8 2.575-15.765 2.575-15.765l17.605-40.35 8.583-35.573 116.446-1.1 1.125 8.688 2.86 24.157 3.2 32.426c3.438 38.845-3.896 45.817-3.896 45.817z" class="C"/><path d="M6565.21 3751.392l-27.152 28.983s-34.83-13.943-31.167-18.71c1.42-1.85 1.192-7.63.372-14.1-1.287-10.147-4.034-21.85-4.034-21.85s60.874-9.9 55.734.362c-1.907 3.758-1.545 8.135-.38 12.18a45.776 45.776 0 0 0 6.628 13.132v.004z" class="E"/><path d="M6558.963 3726.08c-1.907 3.758-2.766 4.12-1.593 8.164-7.963 8.583-18.12 17.882-30.67 17.882a43.422 43.422 0 0 1-19.436-4.559c-1.287-10.147-4.034-21.85-4.034-21.85s60.874-9.9 55.734.362z" class="B"/><path d="M6570.34 3707.38a43.648 43.648 0 1 1-87.3 0v-.63a43.642 43.642 0 1 1 87.282.629h.018z" class="E"/><path d="M6576.663 3995.308l-46.808.553-7.33.12c-25.51.4-50.65-4.578-60.74-3.624-21.458 2.012 7.7-19.808 7.7-19.808a179.323 179.323 0 0 0 48.877 4.94l6.17-.315c19.5-1.106 39.1-2.937 49.325-6.008l2.807 24.142z" class="B"/><path d="M6576.663 3994.21l-46.808.544-7.115.124h-.22c-25.51.4-50.65-4.578-60.74-3.634-21.458 2.012 7.7-19.8 7.7-19.8a179.761 179.761 0 0 0 48.877 4.94l6.17-.324c19.5-1.1 39.1-2.937 49.325-6.008l2.81 24.158z" fill="#7c5c5c"/><path d="M6514.96 3763.495l-33.742 15.774-26.035 201.343s15.4-6.962 24.2-2.565 35.935.372 35.935.372 19.808-1.106 22.745 1.1 37.4-9.165 37.4-9.165 6.237-13.943 1.47-16.136 1.47-23.842 1.47-23.842l-2.937-145.238-5.865-18.7-15.766-9.543-16.156 12.837-7.63 1.1-15.087-7.337z" class="B"/><path d="M6514.96 3761.292l-33.742 15.774-26.035 201.36s15.4-6.97 24.2-2.565 35.935.362 35.935.362 19.808-1.1 22.745 1.1 37.4-9.165 37.4-9.165 6.237-13.933 1.47-16.136 1.47-23.842 1.47-23.842l-2.937-145.257-5.865-18.7-15.766-9.542-16.156 12.846-7.63 1.087-15.087-7.323z" class="D"/><path d="M6514.406 3770.647s9.718 11.55 9.537 13.933l-.544 8.068-7.343 14.86s-4.034 18.52-4.034 22.374-6.418 37.194-6.418 37.194l-7.7 51.347-9.718 67.3 9.9 17.052 11.74-9.9 15.583-119.936 3.3-23.652 3.48-46.94c0-4.397-2.012-15.955-2.012-15.955s2.384-11.006 12.284-13.57-.734-.553-.734-.553l-5.722-4.587-4.95 2.022s-13.713-4.185-16.65.946z" class="B"/><path d="M6513.31 3769.57s9.718 11.55 9.537 13.933l-.553 8.068-7.334 14.86s-3.986 18.5-3.986 22.345-6.418 37.194-6.418 37.194l-7.754 51.423-9.67 67.255 9.91 17.062 11.683-9.928 15.6-119.908 3.3-23.652 3.48-46.95c0-4.406-2.012-15.955-2.012-15.955s2.384-11 12.284-13.57-.734-.544-.734-.544l-5.722-4.587-4.873 2s-13.8-4.2-16.737.956z" class="C"/><path d="M6506.89 3750.295s-1.47 1.1-1.83 8.43-5.5 23.842-5.5 23.842 19.074-13.21 28.61-11.74l-21.28-20.533z" class="B"/><path d="M6506.89 3748.092s-1.47 1.1-1.83 8.44-5.5 23.842-5.5 23.842 19.074-13.2 28.61-11.73l-21.28-20.552z" class="D"/><path d="M6558.972 3744.42l-30.08 26.408s25.31 15.04 28.61 18.71 6.6-35.95 6.6-35.95l-5.13-9.17z" class="B"/><path d="M6560.07 3742.227l-30.022 26.39s25.3 15.03 28.61 18.7 6.61-35.945 6.61-35.945l-5.198-9.144z" class="D"/><path d="M6507.988 3750.296s-3.3-1.65-6.418 3.12-8.984 6.962-8.984 6.962-33.38 5.322-34.657 9.718l-15.583.954s-5.5.725-6.056 12.284-3.52 12.627-3.52 12.627-6.418 11.368-5.875 17.233-4.95 8.8-4.95 8.8l22.89 59.6s.734 24.577-3.5 33.56-12.1 48.78-12.1 48.78 3.31-.734 3.12 1.46-4.034 26.227-4.034 26.227-1.1 9.537-2.928 12.837-2.022 20.543-2.022 20.543l-2.937 12.465s6.97 15.593 17.605 13.352 30.013-43.774 30.013-43.774l12.284-44.928 9.537-44.375 2.747-30.07 4.406-66.568 6.418-44.013s7.1-23.67 4.535-26.793z" class="B"/><path d="M6506.89 3748.093s-3.3-1.65-6.418 3.12-8.984 6.97-8.984 6.97-33.38 5.312-34.657 9.718l-15.593.954s-5.5.734-6.046 12.284-3.5 12.655-3.5 12.655-6.418 11.368-5.865 17.233-4.95 8.8-4.95 8.8l22.89 59.6s.734 24.577-3.48 33.56-12.1 48.78-12.1 48.78 3.3-.734 3.12 1.47-4.034 26.217-4.034 26.217-1.1 9.537-2.937 12.837-2.012 20.543-2.012 20.543l-2.914 12.425s6.97 15.593 17.605 13.352 29.89-43.822 29.89-43.822l12.293-44.928 9.537-44.385 2.756-30.07 4.4-66.568 6.418-44.013s7.14-23.614 4.575-26.732z" class="C"/><path d="M6389.158 3890.02l-10.634 7.347s-16.213.515-27.886-2.346l-5.913-2.632-1.192-.515 1.22.38c6.132 1.822 10.93 1.783 14.677.525 15.05-5.064 13.352-29.917 12.808-35.544l-.124-1.068a.3.3 0 0 1 0-.067l.086.143a6.739 6.739 0 0 0 .7.954 11.68 11.68 0 0 0 .668.715h0l5.312 10.624.057.448 10.22 21.035z" class="B"/><path d="M6426.018 3818.322l-5.13 1.47-.734 10.49s-6.056-.954-7.706 6.237-4.578 10.49-4.578 10.49-10.1 8.44-10.643 15.583l-6.228 3.815s-14.5-3.376-17.786-9.2c0 0 6.6 47.313-28.61 35.754 0 0 39.426 17.243 41.257 19.627s13.943 9.346 24.94 3.48 13.4-14.887 13.4-14.887 10.634-14.858 11.006-17.062 8.583-4.768 8.583-4.768l15.775-38.15-33.533-22.88z" class="C"/><path d="M6554.757 3766.432l5.312-24.2s2.384 7.887 4.77 9.718l7.887 6.046s7.887 3.672 10.634 3.672 17.605 3.815 19.436 5.865 9.175.553 9.175.553 6.046 2.012 11.368 3.3 7.887 10.1 6.78 13.57a10.576 10.576 0 0 0 2.575 9.9c2.193 2.2 3.3 9.356 3.3 9.356a10.729 10.729 0 0 1 6.228 5.312c1.84 4.034 1.288 12.837 1.288 12.837l-27.323 38.5s.362 14.86-.734 18.12 3.815 59.415 3.815 59.415l5.722 96.456s-7.515 6.418-9.165 7.153-3.31-34.114-3.31-35.39-42.353-63.45-42.353-63.45-5.722-9.174-5.722-11.187-5.322-20.543-5.322-20.543l-8.072-35.76 3.7-109.255z" class="B"/><path d="M6645.778 3820.258l-.067 2.1-27.3 38.48s.382 14.85-.725 18.12c-.64 1.907.763 21.65 2.06 37.852l1.793 21.563 5.675 96.456s-7.515 6.418-9.165 7.153-3.3-34.114-3.3-35.4-42.363-63.44-42.363-63.44-5.722-9.174-5.722-11.187-5.312-20.543-5.312-20.543l-8.068-35.763 3.662-109.283 3.12-24.2s4.587 7.887 6.97 9.71l7.878 6.056s7.887 3.672 10.643 3.672 17.605 3.815 19.436 5.865 9.175.553 9.175.553 6.046 2.012 11.358 3.3 7.887 10.1 6.8 13.56a10.576 10.576 0 0 0 2.565 9.909c2.2 2.2 3.3 9.346 3.3 9.346a10.767 10.767 0 0 1 6.237 5.331c1.283 2.845 1.407 7.93 1.36 10.79z" class="C"/><path d="M6421.62 4308.863c.954 0 39.426 1.47 38.7 7.706s-38.7-7.706-38.7-7.706zm8.623 10.452s25.855 4.215 19.074 8.068-19.074-8.068-19.074-8.068zm96.084-14.485s42.916 3.672 36.5 8.43-21.64 5.5-22.374 5.722-14.126-14.153-14.126-14.153zm-5.13 18.9s23.842 4.034 24.567 8.583-24.567-8.583-24.567-8.583zm13.2-110.398s21.82 5.13 23.108 8.583l-23.108-8.583zm-84.173 15.774s-11.368 3.3-.362 9.9.362-9.9.362-9.9zm50.432-176.232c1.287 0 21.277-6.6 28.24-3.662s15.593 2.928 15.593 2.928l-43.832.734zm2.576 20.933l-.2 1.812-17.042 44.823s-2.747 13.56-5.14 21.267a139.33 139.33 0 0 0-3.576 15.917l15.138-93.852 10.82 10.033z" class="B"/><path d="M6529.856 3994.755l-7.115.124h-.22l-4.168-18.483 6.17-.334 5.332 18.693z" class="C"/><path d="M6616.366 3972.377l-19.824 16.3s-41.266 22.01-52.634 1.106c-10.023-18.416 36.765-31.567 48.028-34.438l2.4-.582 22.03 17.614z" class="E"/><path d="M6440.142 3792.105s8.068 3.662 9.9 8.8-9.9-8.8-9.9-8.8zm-24.94 55.01s-11.74 14.305-6.97 19.808 6.97-19.808 6.97-19.808zm209.787-46.94s-11.006 1.1-11.368 10.634l11.368-10.634zm-101.963 150.37c1.1-1.1 26.408-38.5 32.273-35.2l-32.273 35.2zm47.313-243.162a43.49 43.49 0 0 1-5.159 20.6l-.324-.057c-2.766-.582-4.206-3.815-6.323-5.818a8.583 8.583 0 0 0-9.9-1.392 10.071 10.071 0 0 0-4.864 9.413c-1.392-5.875-.954-12.12-2.318-18.006s-5.474-11.835-11.1-11.94c-2.422 0-5.255.9-7-.954-1.06-1.1-1.278-2.86-2.07-4.15-4.015-6.5-16.213-3.214-21.23.114-4.826 3.2-10.8 8.66-17 11.52a43.642 43.642 0 1 1 87.282.629l-.004.04z" class="B"/><path d="M6521.29 3694.01c.8 1.326 1.01 3.06 2.07 4.15 1.745 1.812 4.578.887 7 .954 5.617.1 9.728 6.056 11.09 11.94s.954 12.12 2.317 18a10.052 10.052 0 0 1 4.873-9.4 8.583 8.583 0 0 1 9.89 1.383c2.117 2.012 3.557 5.236 6.323 5.818s5.436-2.07 6.428-4.988.954-6.113 1.583-9.136c1.25-5.722 4.978-10.4 7.048-15.84a28.726 28.726 0 0 0-.191-20.485c-1.373-3.443-3.424-6.542-4.768-9.985-2.117-5.226-13.857-12.264-16.423-17.243-4.32-8.335-1.535-3.138-9.9 0-3.986 1.5-9.213-3.834-13.256-2.508-5.427 1.736-11.215.43-16.833-.353s-11.807-.858-16.318 2.86c-5.188 4.244-6.61 12.226-11.444 16.9-2.05 1.955-4.6 3.2-6.762 5.016s-4.025 4.5-3.815 7.448c.324 3.815 4.044 7.248 2.67 10.767a8.716 8.716 0 0 1-2.031 2.68 38.2 38.2 0 0 0-8.879 15.106c9.813 3.06 20.438-7.754 28.115-12.865 4.97-3.413 17.187-6.665 21.202-.208z" class="C"/><path d="M6616.365 3972.377l-4.568 3.758c-4.025-6.676-20.552-20.094-20.552-20.094l.715-.687 2.4-.582 22.005 17.605z" class="B"/><path d="M6620.77 3965.582l-3.338 7.63c-1.698 3.548-3.538 6.733-3.634 4.13-.18-5.14-21.448-22.383-21.448-22.383l2.86-2.8 3.347-3.243 22.212 16.666z" class="D"/><path d="M6621.506 3938.44l2.413 40.913c-5.722-8.86-21.334-31.567-31.4-30.833l24.4-28.048a32.821 32.821 0 0 0 2.794-3.6l1.793 21.568z" class="B"/><path d="M6620.77 3965.582l-3.338 7.63c-6.4-8.764-15.183-19.12-22.2-21.057l3.347-3.243 22.19 16.67z" class="B"/><path d="M6639.1 3817.254l6.6 5.13s11 .19 12.1 9.356 11.187 13.352 11.187 13.352 7.515 7.515 7.515 11 5.722 9.728 5.722 10.27 5.5 11.74 4.768 13.752 5.865 10.824 3.815 14.124a80.862 80.862 0 0 0-4.406 9.165s-8.583 16.508-13.018 19.627-24.567 29.336-24.567 29.336-21.64 24.94-21.64 32.645c0 0-21.1-35.2-33.56-34.333l24.386-28.058s4.225-4.578 4.406-7.334 11.73-15.4 17.233-15.955c0 0 .954-7.515-1.47-7.7s-4.4-6.056-4.4-6.056-16.136-19.074-16.318-31.176 21.645-37.147 21.645-37.147z" class="C"/><path d="M6648.83 3834.65s-15.412 11.368-12.1 15.03 12.1-15.03 12.1-15.03zm-176.415 534.18s-15.4 10.1-23.1 8.583-15.593 2.575-15.593 2.575a46.407 46.407 0 0 1-19.446 12.656c-12.465 4.215-29.88 2.565-39.78-.744-4.692-1.555-5.064-3.576-2.813-6.056 10.767 2.146 34.83 6.4 41.314 3.3 8.43-4.034 20.533-12.837 20.533-12.837s15.784-2.2 17.977-2.2c1.564 0 13.743-5.026 20.62-7.916l.288 2.63zm-24.662-536.384s0 41.8-3.576 45.94 3.576-45.94 3.576-45.94zm165.312 13.476l5.312 14.94s2.117-14.663-5.312-14.94z" class="B"/><path d="M6483.402 3685.645c1.345-3.443-2.174-6.8-2.632-10.5a6.9 6.9 0 0 0-.591 3.319c.238 2.775 2.3 5.38 2.86 7.944a4.343 4.343 0 0 0 .362-.773v.001zm60.866 39.492c-1.316-5.8-.954-11.912-2.27-17.7s-5.465-11.845-11.082-11.94c-2.422 0-5.255.887-7-.954-1.05-1.087-1.268-2.86-2.06-4.15-4.015-6.5-16.213-3.2-21.24.124-7.506 4.988-17.805 15.412-27.42 13.046-.467 1.116-.9 2.24-1.25 3.4 9.813 3.06 20.438-7.754 28.115-12.865 5.007-3.328 17.224-6.676 21.24-.124.8 1.326 1 3.06 2.07 4.15 1.745 1.812 4.578.887 7 .954 5.617.1 9.728 6.056 11.1 11.94s.954 12.12 2.317 18a9.9 9.9 0 0 1 .5-3.882l-.003-.008zm27.57-6.887c-.954 2.918-3.615 5.6-6.437 4.988s-4.206-3.815-6.313-5.818a8.583 8.583 0 0 0-9.9-1.383 9.995 9.995 0 0 0-4.864 8.888 9.537 9.537 0 0 1 4.32-5.312 8.583 8.583 0 0 1 9.89 1.383c2.117 2.012 3.557 5.236 6.323 5.818s5.436-2.07 6.428-4.988a24.946 24.946 0 0 0 1.011-5.264 14.7 14.7 0 0 1-.458 1.688zm8.62-24.98c-2.06 5.436-5.8 10.128-7.038 15.85-.248 1.154-.4 2.337-.534 3.52 1.26-5.722 4.97-10.376 7.03-15.793a28.321 28.321 0 0 0 1.7-7.63 27.885 27.885 0 0 1-1.154 4.053h-.003z" class="B"/></g><path d="M380.602 482.275h9.584v1.133h-9.584zm26.848 0h9.584v1.133h-9.584zM183.8 160.227h255.073v246.807H183.8z" fill="#fff"/><g transform="matrix(.21989 0 0 .212764 -716.357495 -433.736428)"><use xlink:href="#C"/><use xlink:href="#C" x="40"/><use xlink:href="#C" x="240"/><use xlink:href="#C" y="40"/><use xlink:href="#C" x="120" y="40"/><use xlink:href="#C" x="200" y="40"/><use xlink:href="#C" x="240" y="40"/><use xlink:href="#C" x="320" y="40"/><use xlink:href="#C" y="80"/><use xlink:href="#C" x="40" y="80"/><use xlink:href="#C" x="120" y="80"/><use xlink:href="#C" x="160" y="80"/><use xlink:href="#C" x="200" y="80"/><use xlink:href="#C" x="240" y="80"/><use xlink:href="#C" x="280" y="80"/><use xlink:href="#C" x="160" y="120"/><use xlink:href="#C" x="200" y="120"/><use xlink:href="#C" x="280" y="120"/><use xlink:href="#C" x="320" y="120"/><use xlink:href="#C" y="160"/><use xlink:href="#C" x="80" y="160"/><use xlink:href="#C" x="120" y="160"/><use xlink:href="#C" x="160" y="160"/><use xlink:href="#C" x="200" y="160"/><use xlink:href="#C" x="240" y="160"/><use xlink:href="#C" x="80" y="200"/><use xlink:href="#C" x="160" y="200"/><use xlink:href="#C" x="200" y="200"/><use xlink:href="#C" x="240" y="200"/><use xlink:href="#C" y="240"/><use xlink:href="#C" x="80" y="240"/><use xlink:href="#C" x="160" y="240"/><use xlink:href="#C" x="240" y="240"/><use xlink:href="#C" x="320" y="240"/><use xlink:href="#C" x="40" y="280"/><use xlink:href="#C" x="200" y="280"/><use xlink:href="#C" x="240" y="280"/><use xlink:href="#C" x="280" y="280"/><use xlink:href="#C" x="-320" y="320"/><use xlink:href="#C" x="-200" y="320"/><use xlink:href="#C" x="-160" y="320"/><use xlink:href="#C" x="-120" y="320"/><use xlink:href="#C" x="-80" y="320"/><use xlink:href="#C" x="-40" y="320"/><use xlink:href="#C" y="320"/><use xlink:href="#C" x="40" y="320"/><use xlink:href="#C" x="120" y="320"/><use xlink:href="#C" x="200" y="320"/><use xlink:href="#C" x="320" y="320"/><use xlink:href="#C" x="360" y="320"/><use xlink:href="#C" x="480" y="320"/><use xlink:href="#C" x="560" y="320"/><use xlink:href="#C" x="600" y="320"/><use xlink:href="#C" x="640" y="320"/><use xlink:href="#C" x="-280" y="360"/><use xlink:href="#C" x="-200" y="360"/><use xlink:href="#C" x="-120" y="360"/><use xlink:href="#C" y="360"/><use xlink:href="#C" x="120" y="360"/><use xlink:href="#C" x="200" y="360"/><use xlink:href="#C" x="240" y="360"/><use xlink:href="#C" x="280" y="360"/><use xlink:href="#C" x="360" y="360"/><use xlink:href="#C" x="440" y="360"/><use xlink:href="#C" x="480" y="360"/><use xlink:href="#C" x="520" y="360"/><use xlink:href="#C" x="560" y="360"/><use xlink:href="#C" x="600" y="360"/><use xlink:href="#C" x="-280" y="400"/><use xlink:href="#C" x="-240" y="400"/><use xlink:href="#C" x="-200" y="400"/><use xlink:href="#C" x="-160" y="400"/><use xlink:href="#C" x="-120" y="400"/><use xlink:href="#C" x="-80" y="400"/><use xlink:href="#C" x="-40" y="400"/><use xlink:href="#C" x="40" y="400"/><use xlink:href="#C" x="160" y="400"/><use xlink:href="#C" x="200" y="400"/><use xlink:href="#C" x="280" y="400"/><use xlink:href="#C" x="320" y="400"/><use xlink:href="#C" x="360" y="400"/><use xlink:href="#C" x="400" y="400"/><use xlink:href="#C" x="440" y="400"/><use xlink:href="#C" x="480" y="400"/><use xlink:href="#C" x="520" y="400"/><use xlink:href="#C" x="640" y="400"/><use xlink:href="#C" x="-320" y="440"/><use xlink:href="#C" x="-280" y="440"/><use xlink:href="#C" x="-200" y="440"/><use xlink:href="#C" x="-160" y="440"/><use xlink:href="#C" x="-120" y="440"/><use xlink:href="#C" y="440"/><use xlink:href="#C" x="40" y="440"/><use xlink:href="#C" x="200" y="440"/><use xlink:href="#C" x="280" y="440"/><use xlink:href="#C" x="320" y="440"/><use xlink:href="#C" x="360" y="440"/><use xlink:href="#C" x="520" y="440"/><use xlink:href="#C" x="560" y="440"/><use xlink:href="#C" x="600" y="440"/><use xlink:href="#C" x="640" y="440"/><use xlink:href="#C" x="-280" y="480"/><use xlink:href="#C" x="-240" y="480"/><use xlink:href="#C" x="-160" y="480"/><use xlink:href="#C" x="-80" y="480"/><use xlink:href="#C" x="40" y="480"/><use xlink:href="#C" x="80" y="480"/><use xlink:href="#C" x="120" y="480"/><use xlink:href="#C" x="160" y="480"/><use xlink:href="#C" x="200" y="480"/><use xlink:href="#C" x="280" y="480"/><use xlink:href="#C" x="320" y="480"/><use xlink:href="#C" x="360" y="480"/><use xlink:href="#C" x="400" y="480"/><use xlink:href="#C" x="640" y="480"/><use xlink:href="#C" x="-320" y="520"/><use xlink:href="#C" x="200" y="520"/><use xlink:href="#C" x="240" y="520"/><use xlink:href="#C" x="280" y="520"/><use xlink:href="#C" x="320" y="520"/><use xlink:href="#C" x="480" y="520"/><use xlink:href="#C" x="600" y="520"/><use xlink:href="#C" x="-320" y="560"/><use xlink:href="#C" x="-280" y="560"/><use xlink:href="#C" x="-200" y="560"/><use xlink:href="#C" x="-120" y="560"/><use xlink:href="#C" x="-80" y="560"/><use xlink:href="#C" y="560"/><use xlink:href="#C" x="120" y="560"/><use xlink:href="#C" x="160" y="560"/><use xlink:href="#C" x="200" y="560"/><use xlink:href="#C" x="280" y="560"/><use xlink:href="#C" x="360" y="560"/><use xlink:href="#C" x="480" y="560"/><use xlink:href="#C" x="520" y="560"/><use xlink:href="#C" x="560" y="560"/><use xlink:href="#C" x="600" y="560"/><use xlink:href="#C" x="640" y="560"/><use xlink:href="#C" x="-320" y="600"/><use xlink:href="#C" x="-200" y="600"/><use xlink:href="#C" x="-160" y="600"/><use xlink:href="#C" x="-40" y="600"/><use xlink:href="#C" x="40" y="600"/><use xlink:href="#C" x="120" y="600"/><use xlink:href="#C" x="440" y="600"/><use xlink:href="#C" x="520" y="600"/><use xlink:href="#C" x="560" y="600"/><use xlink:href="#C" x="640" y="600"/><use xlink:href="#C" x="-320" y="640"/><use xlink:href="#C" x="-160" y="640"/><use xlink:href="#C" x="-120" y="640"/><use xlink:href="#C" x="-80" y="640"/><use xlink:href="#C" y="640"/><use xlink:href="#C" x="40" y="640"/><use xlink:href="#C" x="80" y="640"/><use xlink:href="#C" x="240" y="640"/><use xlink:href="#C" x="280" y="640"/><use xlink:href="#C" x="320" y="640"/><use xlink:href="#C" x="360" y="640"/><use xlink:href="#C" x="400" y="640"/><use xlink:href="#C" x="440" y="640"/><use xlink:href="#C" x="480" y="640"/><use xlink:href="#C" x="560" y="640"/><use xlink:href="#C" x="600" y="640"/><use xlink:href="#C" y="680"/><use xlink:href="#C" x="40" y="680"/><use xlink:href="#C" x="80" y="680"/><use xlink:href="#C" x="120" y="680"/><use xlink:href="#C" x="160" y="680"/><use xlink:href="#C" x="200" y="680"/><use xlink:href="#C" x="240" y="680"/><use xlink:href="#C" x="320" y="680"/><use xlink:href="#C" x="480" y="680"/><use xlink:href="#C" x="560" y="680"/><use xlink:href="#C" x="600" y="680"/><use xlink:href="#C" y="720"/><use xlink:href="#C" x="120" y="720"/><use xlink:href="#C" x="320" y="720"/><use xlink:href="#C" x="400" y="720"/><use xlink:href="#C" x="480" y="720"/><use xlink:href="#C" x="640" y="720"/><use xlink:href="#C" y="760"/><use xlink:href="#C" x="40" y="760"/><use xlink:href="#C" x="80" y="760"/><use xlink:href="#C" x="160" y="760"/><use xlink:href="#C" x="240" y="760"/><use xlink:href="#C" x="280" y="760"/><use xlink:href="#C" x="320" y="760"/><use xlink:href="#C" x="480" y="760"/><use xlink:href="#C" x="600" y="760"/><use xlink:href="#C" y="800"/><use xlink:href="#C" x="40" y="800"/><use xlink:href="#C" x="160" y="800"/><use xlink:href="#C" x="200" y="800"/><use xlink:href="#C" x="240" y="800"/><use xlink:href="#C" x="280" y="800"/><use xlink:href="#C" x="320" y="800"/><use xlink:href="#C" x="360" y="800"/><use xlink:href="#C" x="400" y="800"/><use xlink:href="#C" x="440" y="800"/><use xlink:href="#C" x="480" y="800"/><use xlink:href="#C" x="640" y="800"/><use xlink:href="#C" y="840"/><use xlink:href="#C" x="40" y="840"/><use xlink:href="#C" x="240" y="840"/><use xlink:href="#C" x="320" y="840"/><use xlink:href="#C" x="360" y="840"/><use xlink:href="#C" x="400" y="840"/><use xlink:href="#C" x="600" y="840"/><use xlink:href="#C" x="640" y="840"/><use xlink:href="#C" x="40" y="880"/><use xlink:href="#C" x="80" y="880"/><use xlink:href="#C" x="160" y="880"/><use xlink:href="#C" x="240" y="880"/><use xlink:href="#C" x="280" y="880"/><use xlink:href="#C" x="320" y="880"/><use xlink:href="#C" x="360" y="880"/><use xlink:href="#C" x="480" y="880"/><use xlink:href="#C" x="520" y="880"/><use xlink:href="#C" x="560" y="880"/><use xlink:href="#C" x="600" y="880"/><use xlink:href="#C" x="640" y="880"/><use xlink:href="#C" x="40" y="920"/><use xlink:href="#C" x="80" y="920"/><use xlink:href="#C" x="240" y="920"/><use xlink:href="#C" x="360" y="920"/><use xlink:href="#C" x="400" y="920"/><use xlink:href="#C" x="440" y="920"/><use xlink:href="#C" x="480" y="920"/><use xlink:href="#C" x="560" y="920"/><use xlink:href="#C" x="600" y="920"/><use xlink:href="#C" x="640" y="920"/><use xlink:href="#C" y="960"/><use xlink:href="#C" x="40" y="960"/><use xlink:href="#C" x="200" y="960"/><use xlink:href="#C" x="240" y="960"/><use xlink:href="#C" x="320" y="960"/><use xlink:href="#C" x="520" y="960"/><use xlink:href="#C" x="640" y="960"/><use xlink:href="#D"/><use xlink:href="#D" x="720"/><use xlink:href="#D" y="720"/><path d="M4253.663 2951.65h120v120h-120zm720 0h120v120h-120zm-720 720h120v120h-120z"/></g><defs ><path id="B" d="M6570.34 4037.833s22.89-2.2 24.94-.553 15.04 10.1 22.736 4.768 2.565-23.842 2.565-24.577-.725-26.95-.725-26.95l-13.762-18.52-17.233-32.425-35.2-3.48.954 51.5-.18 26.408 15.917 23.832z"/><path id="C" d="M4493.663 2871.65h40v40h-40z"/><path id="D" d="M4411.663 2871.648h-238v280h280v-280h-42zm0 238h-196v-196h196v196z"/></defs></svg>