<svg width="1000" height="1000" xmlns="http://www.w3.org/2000/svg">
 <g>
  <title>background</title>
  <rect fill="#fff9c4" id="canvas_background" height="1002" width="1002" y="-1" x="-1"/>
  <g display="none" overflow="visible" y="0" x="0" height="100%" width="100%" id="canvasGrid">
   <rect fill="url(#gridpattern)" stroke-width="0" y="0" x="0" height="100%" width="100%"/>
  </g>
 </g>
 <g>
  <title>Layer 1</title>
  <g stroke="null" id="svg_152">
   <g stroke="null" transform="matrix(0.557654608249005,0,0,0.5889123951253855,-10196.38452951379,-7409.143934798969) " id="svg_150">
    <title stroke="null" transform="translate(-12.552572250366211,-1.6980453729629517) translate(1.776896595954895,-8.392248153686523) translate(18227.037109375,0) translate(0,12543.529296875) ">background</title>
    <rect stroke="null" x="18215.261434" y="12532.439003" width="975.729567" height="662.213883" id="svg_148" fill="none" fill-opacity="0"/>
   </g>
  </g>
  <g stroke="null" id="svg_206">
   <g stroke="null" transform="matrix(2.0135072637675298,0,0,2.151639427102495,-37565.71091099759,-27462.16596418904) " id="svg_205">
    <title stroke="null" transform="translate(34.3139762878418,3.3801121711730957) translate(50.50947570800781,9.84140682220459) translate(-0.7770688533782959,0) translate(-12.586546897888184,-19.026220321655273) translate(15.7213773727417,-1.658739686012268) translate(-18.865694046020508,-33.579708099365234) translate(32.3509407043457,-2.050753355026245) translate(18178.361328125,0) translate(0,12543.029296875) ">Layer 1</title>
    <path stroke="null" d="m19056.097788,12779.275394c7.81,1.26 16.49,4.26 19.48,11.59c2.26,5.53 0.51,11.76 -0.07,17.7a13.83,13.83 0 0 0 0.17,4.72c0.64,2.5 2.42,4.53 4.13,6.47a34.24,34.24 0 0 1 6,8.34c1.41,3.13 1.85,6.85 0.4,10a7.14,7.14 0 0 0 -1,2.62c-0.1,2 2,3.32 3.59,4.61c5.87,4.86 5.61,13.7 5.66,21.31a108,108 0 0 0 10.19,45a13.76,13.76 0 0 1 -15.39,-2a51.39,51.39 0 0 0 3.49,10.08c-5,2.4 -10.94,-1.55 -13.43,-6.47s-2.78,-10.63 -4.55,-15.85s-4.9,-9.76 -6.25,-15c-0.45,-1.74 -0.71,-3.6 -1.78,-5a13.1,13.1 0 0 0 -3.12,-2.66a30.48,30.48 0 0 1 -11,-15c-6.07,1.34 -12.27,2.69 -18.46,2.12s-12.51,-3.36 -15.78,-8.66c-1.44,-2.33 -2.23,-5 -3.57,-7.41c-1.63,-2.93 -4,-5.35 -5.88,-8.16c-4.36,-6.66 -5.17,-15.22 -3.4,-23s5.9,-14.81 10.77,-21.1c9.27,-12.12 25.01,-16.59 39.8,-14.25z" fill="#000000" id="svg_201"/>
    <path stroke="null" d="m19105.377788,12876.935394q0.66,4.2 1.6,8.34a81.15,81.15 0 0 0 2.7,9.43a9,9 0 0 1 0.84,4.33a7.82,7.82 0 0 1 -1,2.58c-3.57,6.34 -8.38,12.46 -8.79,19.72c-0.1,1.81 0,3.77 -1,5.26q-4.16,-8.92 -9.16,-17.37c-3.47,-5.9 -7.33,-11.85 -8.33,-18.62a34.86,34.86 0 0 1 0.12,-9.57c0.46,-3.56 1.26,-7.21 3.44,-10.06c2.35,-3.09 8.82,-7.74 13,-6.78c4.94,1.13 5.96,8.74 6.58,12.74z" fill="#000000" id="svg_200"/>
    <path stroke="null" d="m18979.567788,12911.035394c-4.67,-1.91 -9.42,-3.92 -13.13,-7.34a44,44 0 0 1 -6,-7.4l-11,-15.87c-2.6,-3.76 -5.28,-7.72 -5.84,-12.26a40.39,40.39 0 0 1 -11,-24.92c-0.07,-0.93 -0.38,-2.15 -1.32,-2.17a1.62,1.62 0 0 0 -1.07,0.51a6.2,6.2 0 0 0 -2,5.26c-1.6,-0.07 -3.34,-0.11 -4.65,0.82s-1.65,3.26 -0.25,4a2,2 0 0 0 -1.4,2.27c-1.67,-0.33 -3.52,-0.6 -5,0.24s-2.05,3.3 -0.61,4.21a4.34,4.34 0 0 0 -2.79,4.17a8.37,8.37 0 0 0 1.9,4.92c4.22,5.66 11.66,7.95 16.55,13a39,39 0 0 1 4.3,5.75l14.31,21.62c4.51,6.85 9.12,13.83 15.54,18.93a14.3,14.3 0 0 0 5.79,3.07a6.37,6.37 0 0 0 6.08,-1.69c1.42,-1.61 1.63,-3.92 1.77,-6.06c0.21,-3.65 -0.41,-7.4 -0.18,-11.06z" fill="#ffaaaa" id="svg_199"/>
    <path stroke="null" d="m19026.997788,13210.355394a12.55,12.55 0 0 0 -1.51,1.83a6.45,6.45 0 0 0 -0.64,5.25a7.1,7.1 0 0 0 3.44,4.07a6.43,6.43 0 0 1 1.08,0.62a5.91,5.91 0 0 0 0.66,0.56a2.64,2.64 0 0 0 1.47,0.27a50.31,50.31 0 0 0 11.2,-1.91c1.68,-0.41 3.46,-0.89 4.62,-2.17a8.74,8.74 0 0 0 1.58,-3.06l1.33,-3.71a42.59,42.59 0 0 0 2.05,-6.89a14.27,14.27 0 0 0 -0.37,-7.11a2.24,2.24 0 0 0 -0.49,1.46a16,16 0 0 1 -2.85,6.9a6.77,6.77 0 0 1 -1.12,1.38a7.06,7.06 0 0 1 -3.32,1.41a42.33,42.33 0 0 1 -7.09,0.91a2.16,2.16 0 0 1 -1,-0.12a1.67,1.67 0 0 1 -0.8,-1a4.22,4.22 0 0 1 0,-2.91c0.63,-1.8 2.4,-3 3.25,-4.7c0.62,-1.27 -0.24,-2.66 -1.53,-1.6a42.83,42.83 0 0 0 -3.27,3.46l-6.69,7.06z" fill="#000000" id="svg_198"/>
    <path stroke="null" d="m19039.267788,13184.705394c0.38,6 0.65,12.4 -2.61,17.41c-1.18,1.8 -2.75,3.31 -4.09,5a6,6 0 0 0 -1.46,3c-0.19,2.18 1.86,4 4,4.46s4.36,-0.26 6.45,-0.93a15.57,15.57 0 0 0 5.47,-2.58c2.84,-2.4 3.59,-6.4 4.16,-10.07l1.33,-8.53a20.54,20.54 0 0 0 -1.19,-12.92l-2.19,-6.41a2.94,2.94 0 0 0 -1,-1.59a2.69,2.69 0 0 0 -1.66,-0.31c-2.1,0.1 -7.37,0.86 -8.39,3.08c-0.83,1.95 1.04,8.1 1.18,10.39z" fill="#ffaaaa" id="svg_197"/>
    <path stroke="null" d="m18992.357788,13007.935394s0,0.11 0,0.16a7.6,7.6 0 0 0 0.81,2.42a34.68,34.68 0 0 1 3.07,12.42a11,11 0 0 0 0.43,3.15a15.59,15.59 0 0 0 1.6,2.76c1.9,3.09 2.34,6.81 3,10.38a82.18,82.18 0 0 0 3.63,13.6c2.17,6 5.1,12.2 4.11,18.53a18.68,18.68 0 0 0 -0.57,4.56a13.28,13.28 0 0 0 1.79,4.79q1.1,2.18 2,4.44c0.65,1.63 1.21,3.28 1.7,5c0.59,2 1,4.46 -0.37,6.1a7.62,7.62 0 0 0 -1.09,1.34a3.43,3.43 0 0 0 0,2.3q1.15,4.89 2.47,9.73q1,3.81 2.15,7.57c5.49,18.42 11.69,36.66 15.38,55.52c0.53,2.71 4,4.66 6.71,5.26a8.8,8.8 0 0 0 7.71,-2.06a6.75,6.75 0 0 0 0.53,-0.54c2.83,-3 3.24,-7.72 3,-11.93c-1,-19.41 -10.72,-37.18 -15.38,-56a107.37,107.37 0 0 1 -3,-20.81c-1.09,-23.44 -1.53,-48.2 5.1,-70.72c1.37,-4.68 3,-10 0.53,-14.17c-1.57,-2.65 -4.47,-4.22 -7.33,-5.36a47.21,47.21 0 0 0 -36.57,0.94a13,13 0 0 0 0.06,1.4a14.36,14.36 0 0 1 -0.74,6.47a8,8 0 0 0 -0.73,2.75z" fill="#ffffff" id="svg_196"/>
    <path stroke="null" d="m19071.798558,13189.166934l1.23,4.51a52.43,52.43 0 0 0 2.64,7.94a32.9,32.9 0 0 1 2.34,5.39a16.65,16.65 0 0 1 0.41,4.62a14.38,14.38 0 0 1 -0.64,4.38a10.92,10.92 0 0 1 -6.39,6.06a30.55,30.55 0 0 1 -8.88,1.67a7.58,7.58 0 0 1 -2.33,-0.06a6.61,6.61 0 0 1 -2.26,-1.18c-4.11,-3 -6.23,-8.59 -6.6,-13.68a16.35,16.35 0 0 1 0.69,-3.49c0.32,-0.43 3.43,1.32 2.1,2.79c-2,2.17 3.8,1 6.73,0.86a26.07,26.07 0 0 0 3.81,-0.62l4.74,-1c1.55,-0.33 3.35,-0.86 3.89,-2.35s-0.65,-3.26 -1.59,-4.71c-2.48,-3.83 -3.11,-8.53 -3.69,-13c-0.11,-0.89 -1.22,-6.65 1.07,-4.86a6.42,6.42 0 0 1 1.59,3c0.48,1.17 0.83,2.45 1.14,3.73z" fill="#000000" id="svg_195"/>
    <path stroke="null" d="m19013.567788,13096.235394c1.34,-1.64 0.95,-4.06 0.36,-6.1c-0.22,-0.76 -0.46,-1.51 -0.71,-2.26l18.63,-6.3c0.07,1.67 0.14,3.33 0.22,5a108.14,108.14 0 0 0 3,20.81c4.66,18.87 14.43,36.64 15.38,56c0.22,4.46 -0.26,9.45 -3.56,12.47a8.84,8.84 0 0 1 -7.72,2.08c-2.7,-0.59 -6.18,-2.55 -6.71,-5.26c-3.68,-18.86 -9.89,-37.1 -15.38,-55.52q-2.57,-8.58 -4.63,-17.3a3.53,3.53 0 0 1 0,-2.29a7.12,7.12 0 0 1 1.12,-1.33z" opacity="0.05" id="svg_194"/>
    <path stroke="null" d="m19065.027788,13170.255394c1.47,2.53 3.72,4.78 4.07,7.68c0.2,1.76 -0.34,3.51 -0.33,5.28a16.7,16.7 0 0 0 0.78,4.3q2.7,9.82 6.26,19.39a5.38,5.38 0 0 1 0.5,2.63c-0.24,1.49 -1.69,2.47 -3.08,3.07c-4.44,1.9 -9.44,1.77 -14.26,1.57a7.5,7.5 0 0 1 -4,-0.93c-1.73,-1.18 -2.15,-3.52 -2.27,-5.61c-0.33,-6 0.7,-12.13 0,-18.14c-0.24,-2.19 -0.7,-4.35 -1,-6.53c-0.48,-3 -0.72,-6.2 0.28,-9.1a20.82,20.82 0 0 1 3.4,-5.73a18,18 0 0 1 4.74,-4.72c0.56,-0.34 2.18,-1.37 2.75,-0.73c0.3,0.34 0.17,1.22 0.21,1.63a16.61,16.61 0 0 0 0.33,1.87a15.62,15.62 0 0 0 1.62,4.07z" fill="#ffaaaa" id="svg_193"/>
    <path stroke="null" d="m19029.207788,13015.495394c0.87,1.18 0.69,2.81 0.35,4.24c-0.63,2.58 -1.65,5 -2.49,7.56a103.79,103.79 0 0 0 -3.21,13.74c-0.78,4.2 -2.44,8.87 -1.76,13.09a93.69,93.69 0 0 0 -9.9,31c-0.37,2.78 5.8,6.38 5.69,9.18c-0.23,5.58 -4.69,6 -1.4,10.48c0.16,0.23 -1.23,5.21 -1,5.43c1.34,1.6 3,2.88 4.47,4.4a33.28,33.28 0 0 1 4.71,6.9c8.5,15.34 20.77,32.73 17,49.86a3,3 0 0 0 1.62,3.08a8.33,8.33 0 0 0 3.59,0.83l0.59,0c2.83,-3 3.24,-7.72 3,-11.93c-1,-19.41 -10.72,-37.18 -15.38,-56a107.37,107.37 0 0 1 -3,-20.81c-1.09,-23.44 -1.53,-48.2 5.1,-70.72c1.37,-4.68 3,-10 0.53,-14.17c-1.57,-2.65 -4.47,-4.22 -7.33,-5.36a47.21,47.21 0 0 0 -36.57,0.94a13,13 0 0 0 0.06,1.4a14.36,14.36 0 0 1 -0.74,6.47a8,8 0 0 0 -0.73,2.81s-0.34,-3.78 -0.33,-3.72c7.61,1.1 15.56,6.07 23.17,7.16a54,54 0 0 1 11.57,2.58a5.11,5.11 0 0 1 2.39,1.56z" opacity="0.05" id="svg_192"/>
    <path stroke="null" d="m19081.907788,12973.935394q1.54,4.88 2.7,9.86a8.19,8.19 0 0 1 0.27,3.54c-0.24,1.11 -0.94,2.11 -1,3.24c-0.18,1.76 1,3.3 1.72,4.93c1.72,4.15 -0.12,8.84 -1.93,12.95l-5.38,12.2l-4.42,10c-1.31,3 -2.62,6 -3.89,8.94a291.21,291.21 0 0 0 -14.06,42.16a5.13,5.13 0 0 1 -0.73,1.83c-0.75,1 -2.1,1.29 -3.2,1.89c-3.31,1.82 -3.69,7.27 -0.66,9.53c-0.62,7.33 4.87,14.41 7.7,21.2c6.52,15.61 5.34,33.2 7.57,50l-2.52,-1.48c-2.43,1.11 -2.35,4.56 -3.66,6.89c-2,3.5 -6.75,4 -10.76,3.73a8.33,8.33 0 0 1 -3.59,-0.83a3,3 0 0 1 -1.61,-3.08c3.77,-17.13 -8.49,-34.52 -17,-49.86a34.07,34.07 0 0 0 -4.71,-6.9c-1.44,-1.52 -3.13,-2.8 -4.47,-4.41c-3.76,-4.5 -4.23,-10.84 -4,-16.69a93.56,93.56 0 0 1 10.65,-39.44c-0.68,-4.22 1,-8.89 1.75,-13.09a105.39,105.39 0 0 1 3.21,-13.74c0.84,-2.52 1.87,-5 2.49,-7.56c0.35,-1.43 0.53,-3.06 -0.34,-4.24a5.06,5.06 0 0 0 -2.47,-1.57a54,54 0 0 0 -11.62,-2.57l-26.16,-3.75c-0.84,-5.38 -1.7,-11.37 -1.12,-16.78a25.82,25.82 0 0 1 18.45,-21.58c1.14,-0.31 2.48,-0.5 3.41,0.23a136.21,136.21 0 0 1 69.38,4.45z" fill="#ffffff" id="svg_191"/>
    <path stroke="null" d="m19058.127788,12832.495394a12.74,12.74 0 0 0 1.15,7.5a11.89,11.89 0 0 0 3,3.29a22.43,22.43 0 0 0 8.63,4.28c1.85,0.47 3.94,0.78 5.16,2.26c1.83,2.22 0.6,5.57 -1,8c-2.7,4.21 -6.48,8 -11.31,9.35c-3.85,1.06 -8,0.41 -11.91,1.09c-2.86,0.5 -5.56,1.68 -8.38,2.36a24.74,24.74 0 0 1 -22.71,-6.34c4.19,-3.22 8.55,-6.65 10.72,-11.47a16.25,16.25 0 0 0 0.81,-11c-1,-3.57 -3.27,-7 -2.56,-10.7s4.29,-6.15 7.85,-7.38a50.74,50.74 0 0 1 9.86,-2c1.84,-0.25 13.55,-2.83 14.28,-1.55c0.41,0.72 -2,5 -2.32,5.93a22.53,22.53 0 0 0 -1.27,6.38z" fill="#ffaaaa" id="svg_190"/>
    <circle stroke="null" cx="19043.387788" cy="12817.285394" r="23.76" fill="#ffaaaa" id="svg_189"/>
    <path stroke="null" d="m19055.937788,12856.555394l-16.11,2.71a60.27,60.27 0 0 1 -12,1.21a33.39,33.39 0 0 0 -6.63,0c-1.52,0.25 -3,0.83 -4.5,1c-1.88,0.23 -3.8,-0.12 -5.68,0.12c-3.5,0.44 -6.37,2.86 -9,5.18c-3.11,2.71 -6.46,5.88 -6.7,10a2.71,2.71 0 0 0 0.2,1.38a4,4 0 0 0 1.19,1.25c3,2.43 4.62,6 6.72,9.25a35.56,35.56 0 0 0 8,8.63c0.71,-0.44 2,0.74 1.73,1.52s-1.07,1.32 -1.32,2.11c-0.57,1.83 1.68,3.17 2.61,4.84s0.47,3.79 0.57,5.73c0.11,2.14 1,4.18 1.23,6.3c0.65,4.94 -1.79,10.16 -0.07,14.83c-2.11,-0.26 -4,1.56 -4.63,3.61a13.54,13.54 0 0 0 0.19,6.32a8.7,8.7 0 0 0 -4.21,8a1.91,1.91 0 0 1 -0.21,1.42a2,2 0 0 1 -0.81,0.47a8,8 0 0 0 -5,7.45a3.76,3.76 0 0 1 -0.14,1.57a3.53,3.53 0 0 1 -1.17,1.2a9.27,9.27 0 0 0 -3.45,7.25c0,1.88 0.78,3.91 2.45,4.75c3.41,1.74 7.08,2.41 10.82,3.22a93.3,93.3 0 0 0 10.47,1.86a91.77,91.77 0 0 0 9.81,0.3l21.55,-0.08c6.06,0 12.12,-0.05 18.16,-0.46c5.64,-0.38 11.41,-1.08 16.87,0.4c0.69,-1.16 -0.41,-2.5 -1.08,-3.66a12.21,12.21 0 0 1 -1.23,-5.07l-1.36,-14.36a25.85,25.85 0 0 1 -0.11,-6c0.29,-2.11 1.09,-4.12 1.5,-6.21c0.79,-4 0.07,-8.19 0.26,-12.28a55.66,55.66 0 0 1 1.88,-10.7l4.27,-17.59c0.69,-2.82 1.05,-6.1 2.1,-8.81q4.94,-12.64 10.33,-25.1a2.65,2.65 0 0 0 -0.18,-2.23l-3.57,-6.38a38.77,38.77 0 0 0 -3.26,-5.2a20.54,20.54 0 0 0 -12,-7.39a21.27,21.27 0 0 0 -14,2.08c-1.66,0.88 -3.2,2 -4.88,2.83c-2.9,1.44 -6.4,2.95 -9.61,2.73z" fill="#000000" id="svg_188"/>
    <path stroke="null" d="m18998.767788,12872.205394l-5.61,7.48a10.18,10.18 0 0 0 -1.31,2.07c-0.84,2 -0.38,4.26 -0.83,6.36a13.43,13.43 0 0 1 -1.65,3.82a85.21,85.21 0 0 1 -7.14,10.61a18.46,18.46 0 0 1 -4.43,4.39a7.35,7.35 0 0 1 -6,1.06a3.69,3.69 0 0 1 2,1.78c2.13,4.23 2.29,9.24 1.38,13.9a14.14,14.14 0 0 1 -1.56,4.54a6.77,6.77 0 0 1 -3.58,3.09a5.27,5.27 0 0 0 6.2,4.46a10.44,10.44 0 0 0 3.08,-1.53l9,-5.84a24.82,24.82 0 0 0 4.19,-3.15c1.69,-1.68 2.87,-3.81 4.5,-5.53c2.8,-3 6.9,-4.72 8.87,-8.28c1.23,-2.22 1.45,-4.85 2.21,-7.28c0.5,-1.59 1.23,-3.1 1.71,-4.69c1.48,-4.94 0.41,-10.36 -1.85,-15s-5.85,-8.33 -9.18,-12.26z" fill="#000000" id="svg_187"/>
    <path stroke="null" d="m19019.917788,12803.745394a31.46,31.46 0 0 1 8.36,-8.7c4.43,-3.31 9.54,-6.06 15.07,-6.37a16.28,16.28 0 0 1 6.79,1.1c0.1,-6.71 1.77,-11.17 6,-10.5c7.81,1.26 16.49,4.26 19.48,11.59c2.26,5.53 0.51,11.76 -0.07,17.7a13.83,13.83 0 0 0 0.17,4.72c0.64,2.5 2.42,4.53 4.13,6.47a34.24,34.24 0 0 1 6,8.34c1.41,3.13 1.85,6.85 0.4,10a7.14,7.14 0 0 0 -1,2.62c-0.1,2 2,3.32 3.59,4.61c5.87,4.86 5.61,13.7 5.66,21.31a108,108 0 0 0 10.19,45a13.76,13.76 0 0 1 -15.39,-2a51.39,51.39 0 0 0 3.49,10.08c-5,2.4 -10.94,-1.55 -13.43,-6.47s-2.78,-10.63 -4.55,-15.85s-4.9,-9.76 -6.25,-15c-0.45,-1.74 -0.71,-3.6 -1.78,-5a13.1,13.1 0 0 0 -3.12,-2.66c-5.12,-3.68 2.41,-31.48 0.42,-37.46c-3,0.66 -8.45,-13.7 -11.56,-28.29a14.79,14.79 0 0 1 -6.76,0.68a7.85,7.85 0 0 0 -2.41,-0.17a6.2,6.2 0 0 0 -2.12,0.86a51.88,51.88 0 0 1 -7.26,3.58c-5.15,1.92 -10.82,1.67 -16.31,1.4a16.17,16.17 0 0 1 2.26,-11.59z" fill="#000000" id="svg_186"/>
    <g stroke="null" opacity="0.1" id="svg_180">
     <path stroke="null" d="m19101.827788,12911.645394a108,108 0 0 1 -10.2,-45c0,-7.61 0.21,-16.45 -5.65,-21.31c-1.57,-1.29 -3.69,-2.58 -3.6,-4.61a7.16,7.16 0 0 1 1,-2.62c1.45,-3.11 1,-6.83 -0.4,-10a34.51,34.51 0 0 0 -5.95,-8.34c-1.71,-1.94 -3.49,-4 -4.13,-6.47a13.59,13.59 0 0 1 -0.17,-4.72c0.58,-5.94 2.32,-12.17 0.07,-17.7c-2.9,-7.09 -11.13,-10.13 -18.74,-11.46a4.32,4.32 0 0 1 2,-0.13c7.81,1.26 16.49,4.26 19.48,11.59c2.26,5.53 0.51,11.76 -0.07,17.7a13.83,13.83 0 0 0 0.17,4.72c0.64,2.5 2.42,4.53 4.13,6.47a34.24,34.24 0 0 1 6,8.34c1.41,3.13 1.85,6.85 0.4,10a7.14,7.14 0 0 0 -1,2.62c-0.1,2 2,3.32 3.59,4.61c5.87,4.86 5.61,13.7 5.66,21.31a108,108 0 0 0 10.19,45a13.37,13.37 0 0 1 -7.54,1.41a13,13 0 0 0 4.76,-1.41z" id="svg_185"/>
     <path stroke="null" d="m19089.927788,12919.705394a51.43,51.43 0 0 1 -3.5,-10.08a12.67,12.67 0 0 0 3.38,2.24a52,52 0 0 0 2.91,7.84a7.47,7.47 0 0 1 -4.59,0.59a7.59,7.59 0 0 0 1.8,-0.59z" id="svg_184"/>
     <path stroke="null" d="m19047.337788,12789.775394a16.64,16.64 0 0 0 -4.52,-1.06l0.53,0a16,16 0 0 1 4,0.3l-0.01,0.76z" id="svg_183"/>
     <path stroke="null" d="m19031.167788,12813.935394a52.56,52.56 0 0 0 7.2,-3.69a6.15,6.15 0 0 1 2.11,-0.86a6.87,6.87 0 0 1 2.21,0.14a8.51,8.51 0 0 0 -1.53,0.72a51.88,51.88 0 0 1 -7.19,3.69a32.15,32.15 0 0 1 -12,1.57a28.33,28.33 0 0 0 9.2,-1.57z" id="svg_182"/>
     <path stroke="null" d="m19049.657788,12808.935394c0,0.22 0.09,0.43 0.14,0.64a14.46,14.46 0 0 1 -3.54,0.1a15.18,15.18 0 0 0 3.4,-0.74z" id="svg_181"/>
    </g>
    <path stroke="null" d="m19099.107788,12919.085394a8.71,8.71 0 0 0 2.34,6.94a15.2,15.2 0 0 0 3.3,2.43a8.71,8.71 0 0 0 3.94,1.48a7.38,7.38 0 0 0 5,-2.18c4.13,-3.63 6.21,-9 8.11,-14.17c2.53,-6.84 5,-13.74 6.13,-20.94c1.17,-7.73 0.67,-15.74 2.89,-23.24c-2,-3.93 -3.23,-8.26 -5.46,-12.05a54.74,54.74 0 0 1 -3.75,-7.05a24.35,24.35 0 0 1 -0.67,-16.26a2.23,2.23 0 0 0 -2.6,0.14a5.36,5.36 0 0 0 -1.56,2.28a20,20 0 0 0 -1.56,9.55a3.83,3.83 0 0 1 -0.26,2.33a2.92,2.92 0 0 1 -2.54,1.07a22.38,22.38 0 0 1 -5.87,-1.06a54.44,54.44 0 0 0 -18.07,-1.49a8.65,8.65 0 0 0 -3.52,0.86a3.27,3.27 0 0 0 -1.81,2.94l14.42,2.12a6,6 0 0 1 3,1a2.05,2.05 0 0 1 0.41,2.86a6.09,6.09 0 0 1 -1,0.66a3,3 0 0 0 0.12,4.76a3,3 0 0 1 1,0.67c0.59,0.8 -0.19,1.85 -0.44,2.8a3.5,3.5 0 0 0 1.74,3.6a12.1,12.1 0 0 0 4,1.36a42.66,42.66 0 0 1 8.25,2.8a4.54,4.54 0 0 1 2.15,1.61c0.71,1.2 0.24,2.73 -0.25,4l-3.76,10.14c-0.59,1.59 -1.18,3.18 -1.91,4.71c-1,2 -2.15,3.85 -3.13,5.83a61,61 0 0 0 -2.35,5.67c-1.83,5.25 -5.65,8.35 -6.29,13.83z" fill="#ffaaaa" id="svg_179"/>
   </g>
  </g>
  <g stroke="null" id="svg_358">
   <g stroke="null" transform="matrix(1.4501241549889166,0,0,0.8547748519675867,-63710.03169280015,-25907.21890416864) " id="svg_356">
    <title stroke="null" transform="translate(1.253820776939392,-3.637978807091713e-12) translate(-1.253820776939392,-3.637978807091713e-12) translate(-1.253820776939392,-3.637978807091713e-12) translate(1.253820776939392,-3.637978807091713e-12) translate(-1.253820776939392,-3.637978807091713e-12) translate(-1.253820776939392,-3.637978807091713e-12) translate(-1.253820776939392,-3.637978807091713e-12) translate(-1.253820776939392,-3.637978807091713e-12) translate(1.253820776939392,-3.637978807091713e-12) translate(1.253820776939392,-3.637978807091713e-12) translate(1.2538206577301025,4.254209518432617) translate(-1.2538206577301025,6.381314277648926) translate(8.776744842529297,-12.762628555297852) translate(-15.422389030456543,6.326497554779053) translate(106.42867279052734,39.773582458496094) translate(-203.6725616455078,22.327280044555664) translate(-37.556644439697266,2.6267385482788086) translate(3.3790218830108643,0) translate(6.840961933135986,0) translate(8.68825912475586,-4.923485279083252) translate(43806.62109375,0) translate(0,30184.62109375) ">background</title>
    <rect stroke="null" x="43680.575518" y="30247.624602" width="975.729567" height="662.213883" id="svg_354" fill="none"/>
   </g>
   <g stroke="null" transform="matrix(1.3377916136474166,0,0,1.4418448264235835,-58814.47965520195,-43638.21076449634) " id="svg_357">
    <title stroke="null" transform="translate(1.3591023683547974,3.637978807091713e-12) translate(-1.3591023683547974,3.637978807091713e-12) translate(-1.3591023683547974,3.637978807091713e-12) translate(1.3591023683547974,3.637978807091713e-12) translate(-1.3591023683547974,3.637978807091713e-12) translate(-1.3591023683547974,3.637978807091713e-12) translate(-1.3591023683547974,3.637978807091713e-12) translate(-1.3591023683547974,3.637978807091713e-12) translate(1.3591023683547974,3.637978807091713e-12) translate(1.3591023683547974,3.637978807091713e-12) translate(1.3591023683547974,2.522040843963623) translate(-1.3591023683547974,3.7830610275268555) translate(9.513716697692871,-7.566122055053711) translate(-16.71738624572754,3.750563621520996) translate(115.36534118652344,23.579137802124023) translate(-203.6725616455078,22.327280044555664) translate(-37.556644439697266,2.6267385482788086) translate(3.3790218830108643,0) translate(6.840961933135986,0) translate(8.68825912475586,-4.923485279083252) translate(43806.62109375,0) translate(0,30184.62109375) ">Layer 1</title>
    <rect stroke="null" x="44367.953598" y="30435.630308" width="9.91" height="81.73" rx="2.29" fill="#000000" id="svg_353"/>
    <rect stroke="null" x="44038.383598" y="30371.590308" width="5.56" height="26.91" rx="2.29" fill="#000000" id="svg_352"/>
    <rect stroke="null" x="44038.183598" y="30420.860308" width="6.27" height="46.84" rx="2.29" fill="#000000" id="svg_351"/>
    <rect stroke="null" x="44038.283598" y="30484.080308" width="5.97" height="47.24" rx="2.29" fill="#000000" id="svg_350"/>
    <rect stroke="null" x="44041.533598" y="30282.670308" width="331.77" height="674.27" rx="38.99" fill="#000000" id="svg_349"/>
    <rect stroke="null" x="44175.413598" y="30302.810308" width="46.33" height="9.41" rx="3.87" fill="#e6e8ec" id="svg_348"/>
    <circle stroke="null" cx="44234.083598" cy="30307.510308" r="5.34" fill="#e6e8ec" id="svg_347"/>
    <path stroke="null" d="m44328.685818,30303.573638l-38,0l0,4.57a21.69,21.69 0 0 1 -21.69,21.7l-121.07,0a21.7,21.7 0 0 1 -21.7,-21.7l0,-4.57l-35.63,0a26.34,26.34 0 0 0 -26.34,26.35l0,586.44a26.34,26.34 0 0 0 26.34,26.35l238.09,0a26.35,26.35 0 0 0 26.35,-26.35l0,-586.44a26.35,26.35 0 0 0 -26.35,-26.35z" fill="#ffffff" id="svg_346"/>
    <rect stroke="null" x="44086.044844" y="30726.212984" width="255.777538" height="50.666667" rx="3.88" fill="#6c63ff" opacity="0.2" id="svg_345" stroke-width="3"/>
    <rect stroke="null" x="44071.683598" y="30497.130308" width="273" height="160" rx="5.51" fill="#fff" id="svg_344"/>
    <rect stroke="null" x="44089.603598" y="30556.130308" width="2.08" height="42" rx="1.04" fill="#6c63ff" id="svg_343"/>
    <rect stroke="null" x="44095.333598" y="30548.130308" width="2.08" height="58" rx="1.04" fill="#6c63ff" id="svg_342"/>
    <rect stroke="null" x="44101.053598" y="30543.130308" width="2.08" height="68" rx="1.04" fill="#6c63ff" id="svg_341"/>
    <rect stroke="null" x="44106.783598" y="30529.630308" width="2.08" height="95" rx="1.04" fill="#6c63ff" id="svg_340"/>
    <rect stroke="null" x="44112.503598" y="30542.630308" width="2.08" height="69" rx="1.04" fill="#6c63ff" id="svg_339"/>
    <rect stroke="null" x="44118.223598" y="30548.130308" width="2.08" height="58" rx="1.04" fill="#6c63ff" id="svg_338"/>
    <rect stroke="null" x="44123.953598" y="30556.130308" width="2.08" height="42" rx="1.04" fill="#6c63ff" id="svg_337"/>
    <rect stroke="null" x="44129.673598" y="30563.130308" width="2.08" height="28" rx="1.04" fill="#6c63ff" id="svg_336"/>
    <rect stroke="null" x="44135.403598" y="30556.130308" width="2.08" height="42" rx="1.04" fill="#6c63ff" id="svg_335"/>
    <rect stroke="null" x="44141.123598" y="30539.130308" width="2.08" height="76" rx="1.04" fill="#6c63ff" id="svg_334"/>
    <rect stroke="null" x="44146.853598" y="30518.630308" width="2.08" height="117" rx="1.04" fill="#6c63ff" id="svg_333"/>
    <rect stroke="null" x="44152.573598" y="30526.630308" width="2.08" height="101" rx="1.04" fill="#6c63ff" id="svg_332"/>
    <rect stroke="null" x="44158.303598" y="30539.130308" width="2.08" height="76" rx="1.04" fill="#6c63ff" id="svg_331"/>
    <rect stroke="null" x="44164.023598" y="30548.130308" width="2.08" height="58" rx="1.04" fill="#6c63ff" id="svg_330"/>
    <rect stroke="null" x="44169.743598" y="30556.130308" width="2.08" height="42" rx="1.04" fill="#6c63ff" id="svg_329"/>
    <rect stroke="null" x="44175.473598" y="30563.130308" width="2.08" height="28" rx="1.04" fill="#6c63ff" id="svg_328"/>
    <rect stroke="null" x="44181.193598" y="30556.130308" width="2.08" height="42" rx="1.04" fill="#6c63ff" id="svg_327"/>
    <rect stroke="null" x="44186.923598" y="30548.130308" width="2.08" height="58" rx="1.04" fill="#6c63ff" id="svg_326"/>
    <rect stroke="null" x="44192.643598" y="30539.130308" width="2.08" height="76" rx="1.04" fill="#6c63ff" id="svg_325"/>
    <rect stroke="null" x="44198.373598" y="30548.130308" width="2.08" height="58" rx="1.04" fill="#6c63ff" id="svg_324"/>
    <rect stroke="null" x="44204.093598" y="30563.130308" width="2.08" height="28" rx="1.04" fill="#6c63ff" id="svg_323"/>
    <rect stroke="null" x="44210.193598" y="30556.130308" width="2.08" height="42" rx="1.04" fill="#6c63ff" id="svg_322"/>
    <rect stroke="null" x="44215.923598" y="30548.130308" width="2.08" height="58" rx="1.04" fill="#6c63ff" id="svg_321"/>
    <rect stroke="null" x="44221.643598" y="30543.130308" width="2.08" height="68" rx="1.04" fill="#6c63ff" id="svg_320"/>
    <rect stroke="null" x="44227.373598" y="30529.630308" width="2.08" height="95" rx="1.04" fill="#6c63ff" id="svg_319"/>
    <rect stroke="null" x="44233.093598" y="30542.630308" width="2.08" height="69" rx="1.04" fill="#6c63ff" id="svg_318"/>
    <rect stroke="null" x="44238.813598" y="30548.130308" width="2.08" height="58" rx="1.04" fill="#6c63ff" id="svg_317"/>
    <rect stroke="null" x="44244.543598" y="30556.130308" width="2.08" height="42" rx="1.04" fill="#6c63ff" id="svg_316"/>
    <rect stroke="null" x="44250.263598" y="30563.130308" width="2.08" height="28" rx="1.04" fill="#6c63ff" id="svg_315"/>
    <rect stroke="null" x="44255.993598" y="30556.130308" width="2.08" height="42" rx="1.04" fill="#6c63ff" id="svg_314"/>
    <rect stroke="null" x="44261.713598" y="30539.130308" width="2.08" height="76" rx="1.04" fill="#6c63ff" id="svg_313"/>
    <rect stroke="null" x="44267.443598" y="30518.630308" width="2.08" height="117" rx="1.04" fill="#6c63ff" id="svg_312"/>
    <rect stroke="null" x="44273.163598" y="30526.630308" width="2.08" height="101" rx="1.04" fill="#6c63ff" id="svg_311"/>
    <rect stroke="null" x="44278.893598" y="30539.130308" width="2.08" height="76" rx="1.04" fill="#6c63ff" id="svg_310"/>
    <rect stroke="null" x="44284.613598" y="30548.130308" width="2.08" height="58" rx="1.04" fill="#6c63ff" id="svg_309"/>
    <rect stroke="null" x="44290.333598" y="30556.130308" width="2.08" height="42" rx="1.04" fill="#6c63ff" id="svg_308"/>
    <rect stroke="null" x="44296.063598" y="30563.130308" width="2.08" height="28" rx="1.04" fill="#6c63ff" id="svg_307"/>
    <rect stroke="null" x="44301.783598" y="30556.130308" width="2.08" height="42" rx="1.04" fill="#6c63ff" id="svg_306"/>
    <rect stroke="null" x="44307.513598" y="30548.130308" width="2.08" height="58" rx="1.04" fill="#6c63ff" id="svg_305"/>
    <rect stroke="null" x="44313.233598" y="30539.130308" width="2.08" height="76" rx="1.04" fill="#6c63ff" id="svg_304"/>
    <rect stroke="null" x="44318.963598" y="30548.130308" width="2.08" height="58" rx="1.04" fill="#6c63ff" id="svg_303"/>
    <rect stroke="null" x="44324.683598" y="30563.130308" width="2.08" height="28" rx="1.04" fill="#6c63ff" id="svg_302"/>
    <line stroke="#f86d70" x1="44228.413598" y1="30497.130308" x2="44228.413598" y2="30657.130308" fill="none" stroke-miterlimit="10" id="svg_301"/>
    <g stroke="null" opacity="0.2" id="svg_294">
     <rect stroke="null" x="44096.683598" y="30481.130308" width="23" height="9" rx="1.49" fill="#6c63ff" id="svg_300"/>
     <rect stroke="null" x="44136.683598" y="30481.130308" width="23" height="9" rx="1.49" fill="#6c63ff" id="svg_299"/>
     <rect stroke="null" x="44176.683598" y="30481.130308" width="23" height="9" rx="1.49" fill="#6c63ff" id="svg_298"/>
     <rect stroke="null" x="44216.683598" y="30481.130308" width="23" height="9" rx="1.49" fill="#6c63ff" id="svg_297"/>
     <rect stroke="null" x="44256.683598" y="30481.130308" width="23" height="9" rx="1.49" fill="#6c63ff" id="svg_296"/>
     <rect stroke="null" x="44296.683598" y="30481.130308" width="23" height="9" rx="1.49" fill="#6c63ff" id="svg_295"/>
    </g>
    <g stroke="null" id="svg_288" opacity="0.55">
     <ellipse stroke="null" cx="153088.869706" cy="111739.685359" rx="2.5" ry="4.5" transform="matrix(0.23668189471381174,-0.19579720873688913,0.0860395963773283,0.5386084581370001,-1204.5325693853824,546.8971978476227) " fill="#ffb8b8" id="svg_293"/>
     <rect stroke="null" x="48536.648139" y="49278.857283" width="82.65983" height="7.67616" fill="#8a84ff" id="svg_292" transform="matrix(1.0423004886967564,0,0,0.6428027763443595,-6398.426569733489,-1300.189985562182) "/>
     <rect stroke="null" x="75534.379138" y="51750.916402" width="144.06914" height="7.67616" fill="#e6e6e6" id="svg_291" transform="matrix(0.634048922547079,0,0,0.6111606610689799,-3700.664400622474,-1229.3884771066132) "/>
     <rect stroke="null" x="75599.538052" y="47954.781834" width="143.92807" height="7.67616" fill="#e6e6e6" id="svg_290" transform="matrix(0.633327283168991,0,0,0.6626506320194414,-3688.274954852329,-1354.5102454682635) "/>
     <rect stroke="null" x="54769.057173" y="31440.277615" width="61.40931" height="61.40931" fill="#8a84ff" id="svg_289" transform="matrix(0.9018529870721179,0,0,1.0353479359709146,-5276.86479359049,-2179.590741694296) "/>
    </g>
    <path stroke="null" d="m44124.751458,30756.504128l-1.45569,0l-0.51594,-0.52495c1.80579,-2.21645 2.89294,-5.09395 2.89294,-8.22421c0,-6.97988 -5.36207,-12.63767 -11.97714,-12.63767s-11.97715,5.65779 -11.97715,12.63767s5.36208,12.63767 11.97715,12.63767c2.96664,0 5.69375,-1.14711 7.79435,-3.05248l0.49752,0.54439l0,1.53597c3.07106,3.23395 6.14212,6.46789 9.21319,9.70184l2.74553,-2.89694l-9.19477,-9.72129l0.00001,0zm-11.05583,0c-4.58817,0 -8.29187,-3.90796 -8.29187,-8.74916s3.7037,-8.74916 8.29187,-8.74916s8.29187,3.90796 8.29187,8.74916s-3.7037,8.74916 -8.29187,8.74916z" id="svg_287" fill="#000000"/>
    <g stroke="null" id="svg_284">
     <g stroke="null" id="svg_286" transform="matrix(1.5961410004152379,0,0,1.4405014534878757,414.0980080612833,371.86936827759024) ">
      <title stroke="null" transform="translate(0.851492702960968,2.4442670110147446e-12) translate(-0.851492702960968,2.4442670110147446e-12) translate(-0.851492702960968,2.4442670110147446e-12) translate(0.851492702960968,2.4442670110147446e-12) translate(-0.851492702960968,2.4442670110147446e-12) translate(-0.851492702960968,2.4442670110147446e-12) translate(-0.851492702960968,2.4442670110147446e-12) translate(-0.851492702960968,2.4442670110147446e-12) translate(0.851492702960968,2.4442670110147446e-12) translate(0.851492702960968,2.4442670110147446e-12) translate(0.851492702960968,1.750807523727417) translate(-0.851492702960968,2.626211166381836) translate(5.960448741912842,-5.252422332763672) translate(-10.473627090454102,2.603651285171509) translate(72.27766418457031,16.368701934814453) translate(-127.60311126708984,15.499658584594727) translate(-23.529653549194336,1.8234889507293701) translate(2.116994619369507,-5.684341886080802e-14) translate(4.285938262939453,-5.684341886080802e-14) translate(5.443290710449219,-3.4178967475891113) translate(27445.33203125,-5.684341886080802e-14) translate(0,20954.24609375) ">background</title>
     </g>
     <g stroke="null" id="svg_285" transform="matrix(1.5961410004152379,0,0,1.4405014534878757,414.0980080612833,371.86936827759024) ">
      <title stroke="null" transform="translate(0.851492702960968,2.4442670110147446e-12) translate(-0.851492702960968,2.4442670110147446e-12) translate(-0.851492702960968,2.4442670110147446e-12) translate(0.851492702960968,2.4442670110147446e-12) translate(-0.851492702960968,2.4442670110147446e-12) translate(-0.851492702960968,2.4442670110147446e-12) translate(-0.851492702960968,2.4442670110147446e-12) translate(-0.851492702960968,2.4442670110147446e-12) translate(0.851492702960968,2.4442670110147446e-12) translate(0.851492702960968,2.4442670110147446e-12) translate(0.851492702960968,1.750807523727417) translate(-0.851492702960968,2.626211166381836) translate(5.960448741912842,-5.252422332763672) translate(-10.473627090454102,2.603651285171509) translate(72.27766418457031,16.368701934814453) translate(-127.60311126708984,15.499658584594727) translate(-23.529653549194336,1.8234889507293701) translate(2.116994619369507,-5.684341886080802e-14) translate(4.285938262939453,-5.684341886080802e-14) translate(5.443290710449219,-3.4178967475891113) translate(27445.33203125,-5.684341886080802e-14) translate(0,20954.24609375) ">Layer 1</title>
     </g>
    </g>
    <g stroke="null" id="svg_282">
     <path stroke="null" d="m44311.238538,30756.443528c3.54675,0 6.38842,-2.51686 6.38842,-5.63477l0.02136,-11.26954c0,-3.1179 -2.86303,-5.63477 -6.40978,-5.63477s-6.40979,2.51687 -6.40979,5.63477l0,11.26954c0,3.11791 2.86304,5.63477 6.40979,5.63477zm11.32395,-5.63477c0,5.63477 -5.42695,9.57911 -11.32395,9.57911s-11.32395,-3.94434 -11.32395,-9.57911l-3.63222,0c0,6.40486 5.81154,11.70154 12.81957,12.62189l0,6.16068l4.27319,0l0,-6.16068c7.00804,-0.90157 12.81957,-6.19825 12.81957,-12.62189l-3.63221,0z" id="svg_283" fill="#ff5b5b"/>
    </g>
   </g>
  </g>
 </g>
</svg>