<svg width="1071.08" height="726.22" xmlns="http://www.w3.org/2000/svg">

 <title>recording</title>
 <g>
  <title>background</title>
  <rect fill="none" id="canvas_background" height="402" width="582" y="-1" x="-1"/>
 </g>
 <g>
  <title>Layer 1</title>
  <path stroke="null" id="svg_1" opacity="0.1" fill="#536dfe" d="m1094.480678,678.253425a203.931509,202.171649 0 0 1 -16.961561,33.394699l-0.165378,0.256173a31.731867,31.458032 0 0 1 -26.873894,14.345682l-959.325654,0c-70.027165,0 -113.903965,-71.728411 -78.792189,-128.916448c63.184659,-102.991751 122.886047,-245.92598 50.646954,-344.450075c-116.04354,-158.376331 8.899393,-187.11893 91.319558,-190.449177a228.965575,226.989679 0 0 1 92.880311,15.534324c38.07824,14.847781 107.671289,37.534453 198.339672,47.945319c2.976801,0.338148 5.974273,0.66605 9.013091,1.024692a840.884135,833.627589 0 0 0 144.478187,2.684692l0,0c1.416047,-0.081975 2.832095,-0.184444 4.279151,-0.286914a834.124317,826.926106 0 0 0 141.315337,-22.389511c3.007809,-0.748025 5.974273,-1.455062 8.920065,-2.172346c154.669595,-36.632724 297.245937,88.225945 261.596683,229.325976c-13.178544,52.187542 -9.829643,107.818048 34.109173,152.822502c71.939346,73.419152 63.226003,145.752131 45.220494,191.330412z"/>
  <rect id="svg_42" fill="#3a3768" rx="2.29" height="81.73" width="9.91" y="204.91" x="678.21"/>
  <rect id="svg_43" fill="#3a3768" rx="2.29" height="26.91" width="5.56" y="140.87" x="348.64"/>
  <rect id="svg_44" fill="#3a3768" rx="2.29" height="46.84" width="6.27" y="190.14" x="348.44"/>
  <rect id="svg_45" fill="#3a3768" rx="2.29" height="47.24" width="5.97" y="253.36" x="348.54"/>
  <rect stroke="null" id="svg_46" fill="#3a3768" rx="38.99" height="678.269993" width="331.77" y="47.950007" x="351.79"/>
  <rect id="svg_47" fill="#e6e8ec" rx="3.87" height="9.41" width="46.33" y="72.09" x="485.67"/>
  <circle id="svg_48" fill="#e6e8ec" r="5.34" cy="76.79" cx="544.34"/>
  <path id="svg_49" fill="#e6e8ec" d="m636.720001,70.853336l-38,0l0,4.57a21.69,21.69 0 0 1 -21.69,21.7l-121.07,0a21.7,21.7 0 0 1 -21.7,-21.7l0,-4.57l-35.63,0a26.34,26.34 0 0 0 -26.34,26.35l0,586.44a26.34,26.34 0 0 0 26.34,26.35l238.09,0a26.35,26.35 0 0 0 26.35,-26.35l0,-586.44a26.35,26.35 0 0 0 -26.35,-26.35z"/>
  <rect stroke="null" id="svg_54" opacity="0.2" fill="#536dfe" rx="3.88" height="100.666737" width="170.250023" y="107.576633" x="430.523333"/>
  <rect id="svg_55" fill="#fff" rx="5.51" height="160" width="273" y="266.41" x="381.94"/>
  <rect id="svg_56" fill="#536dfe" rx="1.04" height="42" width="2.08" y="325.41" x="399.86"/>
  <rect id="svg_57" fill="#536dfe" rx="1.04" height="58" width="2.08" y="317.41" x="405.59"/>
  <rect id="svg_58" fill="#536dfe" rx="1.04" height="68" width="2.08" y="312.41" x="411.31"/>
  <rect id="svg_59" fill="#536dfe" rx="1.04" height="95" width="2.08" y="298.91" x="417.04"/>
  <rect id="svg_60" fill="#536dfe" rx="1.04" height="69" width="2.08" y="311.91" x="422.76"/>
  <rect id="svg_61" fill="#536dfe" rx="1.04" height="58" width="2.08" y="317.41" x="428.48"/>
  <rect id="svg_62" fill="#536dfe" rx="1.04" height="42" width="2.08" y="325.41" x="434.21"/>
  <rect id="svg_63" fill="#536dfe" rx="1.04" height="28" width="2.08" y="332.41" x="439.93"/>
  <rect id="svg_64" fill="#536dfe" rx="1.04" height="42" width="2.08" y="325.41" x="445.66"/>
  <rect id="svg_65" fill="#536dfe" rx="1.04" height="76" width="2.08" y="308.41" x="451.38"/>
  <rect id="svg_66" fill="#536dfe" rx="1.04" height="117" width="2.08" y="287.91" x="457.11"/>
  <rect id="svg_67" fill="#536dfe" rx="1.04" height="101" width="2.08" y="295.91" x="462.83"/>
  <rect id="svg_68" fill="#536dfe" rx="1.04" height="76" width="2.08" y="308.41" x="468.56"/>
  <rect id="svg_69" fill="#536dfe" rx="1.04" height="58" width="2.08" y="317.41" x="474.28"/>
  <rect id="svg_70" fill="#536dfe" rx="1.04" height="42" width="2.08" y="325.41" x="480"/>
  <rect id="svg_71" fill="#536dfe" rx="1.04" height="28" width="2.08" y="332.41" x="485.73"/>
  <rect id="svg_72" fill="#536dfe" rx="1.04" height="42" width="2.08" y="325.41" x="491.45"/>
  <rect id="svg_73" fill="#536dfe" rx="1.04" height="58" width="2.08" y="317.41" x="497.18"/>
  <rect id="svg_74" fill="#536dfe" rx="1.04" height="76" width="2.08" y="308.41" x="502.9"/>
  <rect id="svg_75" fill="#536dfe" rx="1.04" height="58" width="2.08" y="317.41" x="508.63"/>
  <rect id="svg_76" fill="#536dfe" rx="1.04" height="28" width="2.08" y="332.41" x="514.35"/>
  <rect id="svg_77" fill="#536dfe" rx="1.04" height="42" width="2.08" y="325.41" x="520.45"/>
  <rect id="svg_78" fill="#536dfe" rx="1.04" height="58" width="2.08" y="317.41" x="526.18"/>
  <rect id="svg_79" fill="#536dfe" rx="1.04" height="68" width="2.08" y="312.41" x="531.9"/>
  <rect id="svg_80" fill="#536dfe" rx="1.04" height="95" width="2.08" y="298.91" x="537.63"/>
  <rect id="svg_81" fill="#536dfe" rx="1.04" height="69" width="2.08" y="311.91" x="543.35"/>
  <rect id="svg_82" fill="#536dfe" rx="1.04" height="58" width="2.08" y="317.41" x="549.07"/>
  <rect id="svg_83" fill="#536dfe" rx="1.04" height="42" width="2.08" y="325.41" x="554.8"/>
  <rect id="svg_84" fill="#536dfe" rx="1.04" height="28" width="2.08" y="332.41" x="560.52"/>
  <rect id="svg_85" fill="#536dfe" rx="1.04" height="42" width="2.08" y="325.41" x="566.25"/>
  <rect id="svg_86" fill="#536dfe" rx="1.04" height="76" width="2.08" y="308.41" x="571.97"/>
  <rect id="svg_87" fill="#536dfe" rx="1.04" height="117" width="2.08" y="287.91" x="577.7"/>
  <rect id="svg_88" fill="#536dfe" rx="1.04" height="101" width="2.08" y="295.91" x="583.42"/>
  <rect id="svg_89" fill="#536dfe" rx="1.04" height="76" width="2.08" y="308.41" x="589.15"/>
  <rect id="svg_90" fill="#536dfe" rx="1.04" height="58" width="2.08" y="317.41" x="594.87"/>
  <rect id="svg_91" fill="#536dfe" rx="1.04" height="42" width="2.08" y="325.41" x="600.59"/>
  <rect id="svg_92" fill="#536dfe" rx="1.04" height="28" width="2.08" y="332.41" x="606.32"/>
  <rect id="svg_93" fill="#536dfe" rx="1.04" height="42" width="2.08" y="325.41" x="612.04"/>
  <rect id="svg_94" fill="#536dfe" rx="1.04" height="58" width="2.08" y="317.41" x="617.77"/>
  <rect id="svg_95" fill="#536dfe" rx="1.04" height="76" width="2.08" y="308.41" x="623.49"/>
  <rect id="svg_96" fill="#536dfe" rx="1.04" height="58" width="2.08" y="317.41" x="629.22"/>
  <rect id="svg_97" fill="#536dfe" rx="1.04" height="28" width="2.08" y="332.41" x="634.94"/>
  <line id="svg_98" stroke-miterlimit="10" stroke="#f86d70" fill="none" y2="426.41" x2="538.67" y1="266.41" x1="538.67"/>
  <g id="svg_99" opacity="0.2">
   <rect id="svg_100" fill="#536dfe" rx="1.49" height="9" width="23" y="250.41" x="406.94"/>
   <rect id="svg_101" fill="#536dfe" rx="1.49" height="9" width="23" y="250.41" x="446.94"/>
   <rect id="svg_102" fill="#536dfe" rx="1.49" height="9" width="23" y="250.41" x="486.94"/>
   <rect id="svg_103" fill="#536dfe" rx="1.49" height="9" width="23" y="250.41" x="526.94"/>
   <rect id="svg_104" fill="#536dfe" rx="1.49" height="9" width="23" y="250.41" x="566.94"/>
   <rect id="svg_105" fill="#536dfe" rx="1.49" height="9" width="23" y="250.41" x="606.94"/>
  </g>
  <path id="svg_106" opacity="0.1" fill="#536dfe" d="m945.670001,121.92l11,-16.33a4.39,4.39 0 0 0 -3.54,-6.84l-18.3,-0.44a4.39,4.39 0 0 0 -4.13,6.15l7.32,16.77a4.39,4.39 0 0 0 7.65,0.69z"/>
  <path id="svg_107" opacity="0.1" fill="#536dfe" d="m138.540001,576.82l-1.88,19.58a4.4,4.4 0 0 0 6.37,4.34l16.31,-8.32a4.39,4.39 0 0 0 0.7,-7.38l-14.42,-11.27a4.4,4.4 0 0 0 -7.08,3.05z"/>
  <path id="svg_108" opacity="0.1" fill="#536dfe" d="m27.540001,365.82l-1.88,19.58a4.4,4.4 0 0 0 6.37,4.34l16.31,-8.32a4.39,4.39 0 0 0 0.7,-7.38l-14.42,-11.27a4.4,4.4 0 0 0 -7.08,3.05z"/>
  <path id="svg_109" opacity="0.1" fill="#536dfe" d="m259.210001,6.78l37.71,59.11a4.4,4.4 0 0 0 7.69,-0.51l27.5,-59.13a4.4,4.4 0 0 0 -4,-6.25l-65.21,0a4.39,4.39 0 0 0 -3.69,6.78z"/>
  <path id="svg_110" opacity="0.1" fill="#536dfe" d="m905.800001,543.66l-18.8,5.82a4.39,4.39 0 0 0 -1.54,7.55l14,11.84a4.4,4.4 0 0 0 7.08,-2.2l4.8,-17.67a4.4,4.4 0 0 0 -5.54,-5.34z"/>
  <path id="svg_111" opacity="0.1" fill="#536dfe" d="m219.800001,311.66l-18.8,5.82a4.39,4.39 0 0 0 -1.54,7.55l14,11.84a4.4,4.4 0 0 0 7.08,-2.2l4.8,-17.67a4.4,4.4 0 0 0 -5.54,-5.34z"/>
  <path id="svg_112" opacity="0.1" fill="#536dfe" d="m1041.800001,375.66l-18.8,5.82a4.39,4.39 0 0 0 -1.54,7.55l14,11.84a4.4,4.4 0 0 0 7.08,-2.2l4.8,-17.67a4.4,4.4 0 0 0 -5.54,-5.34z"/>
  <g stroke="null" id="svg_467">
   <path stroke="null" id="svg_402" fill="#f2f2f2" d="m532.132498,158.114034a2.383874,2.683935 0 0 1 -0.210404,0.765147a9.497623,10.693102 0 0 1 -0.34927,2.937405a7.906971,8.902232 0 0 0 -0.220924,1.229446c-0.496553,3.823364 -0.976273,7.817288 -0.128346,11.522208a1.232966,1.388161 0 0 1 0.321918,-0.592219c0.559674,-0.774622 0.780598,-1.786132 0.946817,-2.766846c0.873175,-5.164148 0.631211,-10.437263 0.420807,-15.712748a1.554883,1.750599 0 0 0 -0.45868,-0.390864a4.266987,4.804079 0 0 1 -0.014728,0.691712a20.354453,22.916497 0 0 1 -0.307189,2.31676z"/>
   <path stroke="null" id="svg_407" fill="#f2f2f2" d="m528.088539,131.423919a2.148222,2.418621 0 0 0 -0.164115,-0.876484a2.486972,2.80001 0 0 0 -0.408183,-0.634859l-0.454472,-0.582743c-0.227236,6.092747 -0.706956,12.204444 0.256693,18.174009c0.170427,-0.644334 0.342958,-1.288668 0.513385,-1.935371a17.532939,19.739836 0 0 1 1.012042,-3.098489c-0.09889,-0.94755 -0.220924,-1.911682 -0.342958,-2.84265a7.906971,8.902232 0 0 0 -0.220924,-1.229446a10.433919,11.747251 0 0 1 -0.25038,-4.773283a9.901598,11.147926 0 0 0 0.058913,-2.200685z"/>
   <path stroke="null" id="svg_408" fill="#f2f2f2" d="m518.912834,177.991265l-0.719581,28.5331l1.893633,-0.023689a79.172804,89.138399 0 0 1 -0.454472,-10.458583c0,-1.016247 0.031561,-2.04197 -0.155699,-3.036898c-0.132554,-0.69408 -0.363998,-1.359734 -0.490241,-2.053815a10.92416,12.299199 0 0 1 -0.14097,-2.522852l0.067329,-10.437263z"/>
   <path stroke="null" id="svg_409" fill="#f2f2f2" d="m502.640213,178.005478c0.029457,-0.078173 0.058913,-0.156346 0.086266,-0.236888c0.09889,-0.289003 0.187259,-0.580374 0.269317,-0.874115a0.210404,0.236888 0 0 0 -0.016832,0.033164c-0.166219,0.307954 -0.347166,0.604063 -0.534425,0.893066c0.067329,0.061591 0.132554,0.120813 0.195675,0.184772z"/>
   <path stroke="null" id="svg_411" fill="#f2f2f2" d="m445.41041,167.582428c0.029457,-0.078173 0.058913,-0.156346 0.086266,-0.236888c0.09889,-0.289003 0.187259,-0.580374 0.269317,-0.874115a0.210404,0.236888 0 0 0 -0.016832,0.033164c-0.166219,0.307954 -0.347166,0.604063 -0.534425,0.893066c0.067329,0.061591 0.132554,0.120813 0.195675,0.184772z"/>
   <path stroke="null" id="svg_414" fill="#f2f2f2" d="m452.490494,199.16427c0.082057,0.293741 0.170427,0.585112 0.269317,0.874115c0.027352,0.078173 0.056809,0.156346 0.086266,0.236888c0.063121,-0.06396 0.128346,-0.123182 0.195675,-0.182403c-0.187259,-0.289003 -0.368206,-0.585112 -0.534425,-0.893066a0.210404,0.236888 0 0 0 -0.016832,-0.035533z"/>
   <path stroke="null" id="svg_416" fill="#f2f2f2" d="m474.303044,180.50701c0.105202,0.14687 0.210404,0.293741 0.31771,0.44298l-0.536529,-2.345186a1.312919,1.478178 0 0 0 -0.227236,-0.604063a2.329169,2.622345 0 0 0 -0.631211,-0.447717a1.752663,1.973273 0 0 1 -0.14097,-0.118444c0.311397,0.447717 0.685916,0.850426 0.911048,1.362103a3.682065,4.145531 0 0 1 0.307189,1.710328z"/>
   <path stroke="null" id="svg_417" fill="#f2f2f2" d="m480.402647,170.107649c0.132554,1.646368 0.210404,3.297474 0.284045,4.94858s0.149387,3.259572 0.223028,4.889358a21.461176,24.162525 0 0 1 0.778494,-3.719134c-0.302981,-0.630121 -0.355582,-1.383423 -0.389247,-2.10593c-0.105202,-2.283596 -0.151491,-4.567191 -0.166219,-6.853156c-0.321918,0.324536 -0.648043,0.641965 -0.976273,0.94755a11.833103,13.322553 0 0 1 0.246172,1.892731z"/>
   <path stroke="null" id="svg_419" fill="#f2f2f2" d="m528.534595,206.396446l1.649565,-0.018951c-0.879487,-5.704251 0.389247,-11.827793 -0.805846,-17.529675c-0.187259,-0.888328 -0.420807,-1.819296 -0.47972,-2.721837c-0.420807,1.257873 -0.902632,2.499163 -1.012042,3.83284c-0.191467,2.304915 0.772182,4.512707 1.129868,6.793934c0.492345,3.143497 -0.174635,6.348585 -0.471304,9.522878c-0.004208,0.04264 -0.006312,0.075804 -0.01052,0.120813z"/>
   <path stroke="null" id="svg_421" fill="#f2f2f2" d="m582.303258,140.174544l0.016832,-0.066329l0.075745,-0.277158a2.63215,2.963463 0 0 0 -0.593338,-0.416922a1.752663,1.973273 0 0 1 -0.14097,-0.118444c0.2083,0.298478 0.441848,0.575637 0.641731,0.878853z"/>
   <path stroke="null" id="svg_422" fill="#f2f2f2" d="m561.058797,161.025382c0.082057,0.293741 0.170427,0.585112 0.269317,0.874115c0.027352,0.078173 0.056809,0.156346 0.086266,0.236888c0.063121,-0.06396 0.128346,-0.123182 0.195675,-0.182403c-0.187259,-0.289003 -0.368206,-0.585112 -0.534425,-0.893066a0.210404,0.236888 0 0 0 -0.016832,-0.035533z"/>
   <path stroke="null" id="svg_424" fill="#f2f2f2" d="m493.432948,206.825212q0,-1.861936 0.02104,-3.72624q-0.048393,1.861936 -0.092578,3.72624l0.071537,0z"/>
   <path stroke="null" id="svg_426" fill="#f2f2f2" d="m424.172261,145.914328l-0.536529,2.345186c0.105202,-0.149239 0.210404,-0.296109 0.31771,-0.44298a3.682065,4.145531 0 0 1 0.298773,-1.710328c0.225132,-0.511677 0.599651,-0.914386 0.911048,-1.362103a1.752663,1.973273 0 0 1 -0.14097,0.118444a2.329169,2.622345 0 0 0 -0.631211,0.447717a1.312919,1.478178 0 0 0 -0.21882,0.604063z"/>
   <path stroke="null" id="svg_428" fill="#f2f2f2" d="m586.242015,170.898853c0.063121,-0.06396 0.128346,-0.123182 0.195675,-0.182403c-0.187259,-0.289003 -0.368206,-0.585112 -0.534425,-0.893066a0.210404,0.236888 0 0 0 -0.016832,-0.033164c0.082057,0.293741 0.170427,0.585112 0.269317,0.874115c0.027352,0.078173 0.050497,0.153977 0.086266,0.234519z"/>
   <path stroke="null" id="svg_429" fill="#f2f2f2" d="m531.391877,175.238632c0.082057,0.293741 0.170427,0.585112 0.269317,0.874115c0.027352,0.078173 0.056809,0.156346 0.086266,0.236888c0.063121,-0.06396 0.128346,-0.123182 0.195675,-0.182403c-0.187259,-0.289003 -0.368206,-0.585112 -0.534425,-0.893066a0.210404,0.236888 0 0 0 -0.016832,-0.035533z"/>
   <path stroke="null" id="svg_433" fill="#f2f2f2" d="m540.933684,201.443128q0.012624,2.402039 0.027352,4.804079l0.092578,0l-0.11993,-4.804079z"/>
   <path stroke="null" id="svg_434" fill="#f2f2f2" d="m595.42824,195.994715q0.02104,3.624379 0.042081,7.248758l0.138866,-0.090017q-0.092578,-3.577001 -0.180947,-7.15874z"/>
   <path stroke="null" id="svg_435" fill="#f2f2f2" d="m590.328054,121.102731l-0.355582,0.080542a4.628881,5.211525 0 0 0 0.660668,0.710663a3.51795,3.960759 0 0 1 -0.305085,-0.791204z"/>
   <path stroke="null" id="svg_437" fill="#f2f2f2" d="m607.698983,151.13296c0.105202,0.14687 0.210404,0.293741 0.31771,0.44298l-0.536529,-2.345186a1.312919,1.478178 0 0 0 -0.227236,-0.604063a2.329169,2.622345 0 0 0 -0.631211,-0.447717a1.752663,1.973273 0 0 1 -0.14097,-0.118444c0.311397,0.447717 0.685916,0.850426 0.911048,1.362103a3.682065,4.145531 0 0 1 0.307189,1.710328z"/>
   <path stroke="null" id="svg_439" fill="#3f3d56" d="m461.935859,158.27038l116.016594,0a3.972422,4.472436 0 0 1 3.972422,4.472436l0,15.712748a0,0 0 0 1 0,0l-123.961437,0a0,0 0 0 1 0,0l0,-15.70801a3.972422,4.472436 0 0 1 3.972422,-4.477174z"/>
   <path stroke="null" id="svg_443" fill="#3f3d56" d="m458.178561,176.44202l123.961437,0a0,0 0 0 1 0,0l0,3.446713a4.109184,4.626413 0 0 1 -4.109184,4.626413l-115.490585,0a4.361668,4.910678 0 0 1 -4.361668,-4.910678l0,-3.162448a0,0 0 0 1 0,0z"/>
   <ellipse stroke="null" transform="matrix(0.21040368895264738,0,0,0.23688750475756673,-2875.962099716044,-3497.2448360034073) " id="svg_444" fill="#536dfe" ry="9.13" rx="42" cy="15516.059576" cx="16012.054238"/>
   <path stroke="#536dfe" id="svg_445" stroke-width="6" stroke-miterlimit="10" fill="none" d="m492.309392,178.557426l-0.174635,-10.2975c-0.037873,-2.302547 0.035769,-4.913047 1.556987,-6.455185c0.961545,-0.973608 2.404914,-1.392899 3.008773,-2.679198c0.32823,-0.710663 0.334542,-1.532662 0.332438,-2.323866q0,-7.01187 -0.023144,-14.019003"/>
   <rect stroke="null" transform="matrix(0.21040368895264738,0,0,0.23688750475756673,-2875.962099716044,-3497.2448360034073) " id="svg_446" fill="#536dfe" rx="8" height="37.74" width="19.48" y="15347.469576" x="16019.964238"/>
   <path stroke="null" id="svg_447" fill="#fbbebe" d="m529.336233,162.209819c-1.346584,-1.76955 -2.783641,-3.446713 -4.220698,-5.123877l-2.914091,-3.404073l-2.646878,-3.091382l-12.735735,-14.871798c-1.548571,-1.809821 -3.172888,-3.676494 -5.260092,-4.562453s-4.788788,-0.490357 -6.053314,1.582409a2.657399,2.991889 0 0 0 -0.486033,2.276489c0.147283,0.769884 0.631211,1.397636 1.155116,1.930633c2.482764,2.553647 5.83239,3.683601 8.796978,5.472101a10.425503,11.737776 0 0 1 2.697375,2.174627a13.425859,15.115792 0 0 1 1.68323,2.693411l7.446187,13.988207a17.276247,19.450833 0 0 0 1.57382,2.605763c0.475512,0.630121 1.020458,1.184438 1.523323,1.793238c1.188781,1.421325 2.122973,3.105595 3.265465,4.583773c1.588548,2.060921 3.551614,3.704921 5.497848,5.332338c0.401871,0.33638 0.841615,0.684605 1.336063,0.710663c0.654355,0.037902 1.220341,-0.473775 1.710582,-0.964132c0.79743,-0.793573 2.417538,-1.933002 2.855178,-3.036898c0.385039,-0.978345 -0.294565,-1.966166 -0.704852,-2.828437a36.768045,41.396091 0 0 0 -4.519471,-7.260602z"/>
   <path stroke="null" id="svg_448" fill="#3f3d56" d="m535.528414,206.114549l-18.616518,0.236888l-2.61111,0.030795l-5.127538,0.06396l-0.235652,0l-4.376397,0.054484a22.498466,25.330381 0 0 1 1.481242,-4.145531a14.259058,16.053866 0 0 1 1.34448,-2.368875c0.9384,0.094755 1.874697,0.180035 2.813097,0.265314q3.261257,0.286634 6.522514,0.523521c5.504161,0.407447 10.997801,0.75804 16.520898,1.312357c0.372415,0.037902 0.770078,0.087648 1.052018,0.360069a1.706374,1.921158 0 0 1 0.385039,0.658547a11.923577,13.424415 0 0 1 0.847927,3.008471z"/>
   <path stroke="null" id="svg_449" fill="#fbbebe" d="m522.597003,148.77356c4.797204,-1.719803 7.094812,-2.688673 11.361799,-5.713727c-0.932088,0.175297 0.420807,-1.09442 -0.511281,-1.238922s-1.870489,-0.663285 -2.346001,-1.582409c-0.309293,-0.596957 -0.399767,-1.300512 -0.481824,-1.985117l-0.454472,-3.749929c0.054705,0.445349 -8.687568,0.502202 -8.750689,3.276154c-0.033665,1.449752 0.881591,3.105595 1.119348,4.541133a16.699741,18.801761 0 0 1 0.063121,6.452816z"/>
   <path stroke="null" id="svg_450" opacity="0.1" d="m522.597003,148.77356c4.797204,-1.719803 7.094812,-2.688673 11.361799,-5.713727c-0.932088,0.175297 0.420807,-1.09442 -0.511281,-1.238922s-1.870489,-0.663285 -2.346001,-1.582409c-0.309293,-0.596957 -0.399767,-1.300512 -0.481824,-1.985117l-0.454472,-3.749929c0.054705,0.445349 -8.687568,0.502202 -8.750689,3.276154c-0.033665,1.449752 0.881591,3.105595 1.119348,4.541133a16.699741,18.801761 0 0 1 0.063121,6.452816z"/>
   <path stroke="null" id="svg_451" fill="#565171" d="m542.246603,182.643736c0,0.625383 0,1.248397 -0.027352,1.871411c-0.105202,2.676829 -0.483928,5.344182 -0.717477,8.013904c-0.395559,4.500863 -0.378727,9.001725 -0.305085,13.514432l-5.668275,0.068697l-18.616518,0.236888l-2.61111,0.030795l-5.127538,0.06396c-0.048393,-0.127919 -0.100994,-0.25347 -0.157803,-0.374282a0.039977,0.045009 0 0 0 0,-0.016582c-0.6775,-1.480547 -1.908361,-2.511008 -2.964588,-3.690707a7.574533,8.52795 0 0 1 -1.310815,-1.826403c2.314441,-4.486649 4.441622,-9.158071 5.964945,-14.059273c0.210404,-0.651441 0.391351,-1.309988 0.631211,-1.954322a8.931637,10.055875 0 0 1 0.536529,-1.28393c0.372415,-0.724876 0.841615,-1.392899 1.11514,-2.176996a6.442561,7.253495 0 0 0 0.324022,-2.153307q0.012624,-0.220305 0.018936,-0.440611q0.037873,-0.94755 0.031561,-1.87378c0,-0.049746 0,-0.097124 0,-0.144501q0,-1.125216 -0.071537,-2.245694c-0.103098,-1.679532 -0.300877,-3.366171 -0.117826,-5.036228c0.345062,-3.145866 1.994627,-5.867703 3.172888,-8.764838c0.113618,-0.27479 0.223028,-0.54721 0.324022,-0.824369c0.157803,-0.426398 0.302981,-0.862271 0.441848,-1.300512c0.793222,-2.525221 1.380248,-5.192574 2.832034,-7.246389c0.122034,-0.175297 0.256693,-0.348225 0.393455,-0.516415c0.610171,-0.734351 1.355,-1.376316 1.71479,-2.29544s0.464992,-2.086979 -0.401871,-2.321498q0.608067,-0.487988 1.15722,-0.914386c2.834138,-2.193578 4.649922,-3.214563 8.416148,-4.1479c0.082057,-0.02132 0.164115,-0.037902 0.246172,-0.054484a1.68323,1.8951 0 0 1 0.725893,0a2.120869,2.387826 0 0 1 0.685916,0.412184c2.278672,1.800345 4.418477,3.188506 5.365294,6.135386c0.330334,1.025723 1.378144,2.67446 1.535947,3.749929c0.374519,2.541803 1.348688,4.834874 2.009355,7.208487a12.203414,13.739475 0 0 1 0.650147,4.363468c-0.050497,4.157376 -0.767973,8.291063 -0.662772,12.443701c0.012624,0.450086 0.033665,0.900173 0.061017,1.34789c0,0.047378 0,0.097124 0,0.144501c0.037873,0.625383 0.090474,1.250766 0.14097,1.87378c0.11993,1.392899 0.25038,2.781059 0.265109,4.183433z"/>
   <path stroke="null" id="svg_452" fill="#fbbebe" d="m525.014541,172.265694c0,0.028427 0,0.061591 0,0.090017c-0.048393,0.874115 -0.094682,1.750599 -0.164115,2.627082c0,0.151608 -0.023144,0.305585 -0.035769,0.461931c-0.029457,0.331643 -0.058913,0.665654 -0.094682,0.997296c0,0.047378 0,0.094755 -0.014728,0.144501c-0.067329,0.627752 -0.149387,1.253135 -0.254588,1.87378s-0.235652,1.274455 -0.393455,1.8951c-0.35979,1.404743 -0.858447,2.762108 -1.262422,4.152638c-0.134658,0.473775 -0.260901,0.94755 -0.366102,1.421325c-0.176739,0.805418 -0.294565,1.622679 -0.502865,2.416253a17.082676,19.232897 0 0 1 -1.089891,2.911347l-4.10708,9.501558q-1.117244,2.582074 -2.234487,5.161779c-0.061017,0.144501 -0.124138,0.289003 -0.187259,0.435873l-5.127538,0.06396l-0.235652,0c0.027352,-0.127919 0.052601,-0.251101 0.077849,-0.376651q0.595442,-2.90661 1.188781,-5.81085t1.165636,-5.725571q0.420807,-2.094086 0.856343,-4.185802q0.467096,-2.302547 0.940504,-4.609831c0.082057,-0.40034 0.164115,-0.798311 0.244068,-1.198651c0.387143,-1.869042 0.78691,-3.735716 1.262422,-5.576332c0.039977,-0.158715 0.084161,-0.319798 0.124138,-0.473775c0.172531,-0.630121 0.351374,-1.255504 0.544946,-1.87378c0.012624,-0.049746 0.027352,-0.099493 0.042081,-0.144501a34.586158,38.939568 0 0 1 1.645357,-4.458223c0.012624,-0.035533 0.027352,-0.06396 0.042081,-0.099493s0,0 0,0c0.174635,-0.397971 0.35979,-0.791204 0.549154,-1.184438c0.420807,-0.855164 0.778494,-2.037233 1.718998,-2.207792c0.841615,-0.151608 2.080892,0.37902 3.076102,0.767516l0,0c0.271421,0.106599 0.519697,0.198986 0.740621,0.267683c0.631211,0.196617 1.321335,0.450086 1.649565,1.087314c0.258797,0.483251 0.233548,1.087314 0.201988,1.648737z"/>
   <path stroke="null" id="svg_453" opacity="0.1" d="m520.179464,152.599293c-1.052018,1.205757 -1.660085,2.823699 -2.118765,4.439272a28.459203,32.041404 0 0 0 -1.035186,14.490409c0.071537,0.523521 0.183051,1.101527 0.572298,1.402374c0.43764,0.338749 1.070955,0.158715 1.472826,-0.248732s0.595442,-0.987821 0.791118,-1.544507c0.342958,0.916755 0.704852,1.861936 1.346584,2.546541c1.331855,1.421325 3.467453,1.345521 5.005504,2.475474a125.097617,140.843835 0 0 0 5.600946,-15.082627a7.444083,8.38108 0 0 0 0.515489,-2.447048a5.072833,5.711358 0 0 0 -0.376623,-2.207792c-0.841615,-2.465999 -2.802577,-4.361099 -5.049689,-5.093081c-2.156638,-0.703556 -5.066521,-0.615908 -6.724502,1.269717z"/>
   <path stroke="null" id="svg_454" fill="#565171" d="m519.929084,152.021288c-1.052018,1.205757 -1.660085,2.826068 -2.120869,4.439272a28.433955,32.012977 0 0 0 -1.033082,14.497515c0.069433,0.523521 0.183051,1.101527 0.570194,1.400005c0.43764,0.341118 1.070955,0.158715 1.462306,-0.236888s0.597546,-0.985452 0.791118,-1.544507c0.345062,0.916755 0.704852,1.861936 1.346584,2.54891c1.331855,1.421325 3.467453,1.345521 5.007608,2.473106a125.154426,140.907794 0 0 0 5.598842,-15.082627a7.301008,8.219996 0 0 0 0.515489,-2.444679a5.049689,5.6853 0 0 0 -0.376623,-2.21016c-0.841615,-2.465999 -2.802577,-4.35873 -5.049689,-5.093081c-2.150326,-0.717769 -5.060209,-0.63249 -6.711878,1.253135z"/>
   <circle stroke="null" transform="matrix(0.21040368895264738,0,0,0.23688750475756673,-2875.962099716044,-3497.2448360034073) " id="svg_455" fill="#fbbebe" r="42.599998" cy="15314.599576" cx="16159.954238"/>
   <path stroke="null" id="svg_456" fill="#3f3d56" d="m515.201313,126.046573a3.772538,4.247393 0 0 1 2.202927,-1.383423c-0.075745,1.025723 0.696436,1.8951 1.527531,2.330973s1.765287,0.570899 2.583757,1.025723c1.460202,0.810155 2.569029,2.593918 4.19545,2.660247c0.563882,0.02132 1.262422,-0.118444 1.582236,0.397971a1.348688,1.518449 0 0 1 0.185155,0.760409l0.155699,1.914051c0.450264,0.296109 0.999418,-0.049746 1.50649,-0.182403a2.04302,2.300178 0 0 1 2.314441,3.207457a4.142849,4.664315 0 0 0 4.641505,-5.569225a3.690481,4.155007 0 0 1 -0.162011,-1.184438c0.065225,-0.914386 0.841615,-1.518449 1.287671,-2.285964c0.616483,-1.065994 0.570194,-2.482581 0.157803,-3.667019s-1.140388,-2.186472 -1.857865,-3.167186l-2.547989,-3.486984c-1.176157,-1.606097 -2.575341,-3.344852 -4.418477,-3.451451c-1.306607,-0.073435 -2.535364,0.710663 -3.837763,0.848057c-1.893633,0.201354 -3.881948,-0.94755 -5.640923,-0.144501c-1.262422,0.575637 -2.011459,1.989855 -2.680543,3.316425c-0.559674,1.106265 -1.12566,2.233849 -1.359208,3.477509c-0.380831,2.023019 0.157803,4.133687 -0.048393,6.187502l0.212508,-1.603728z"/>
   <path stroke="null" id="svg_466" fill="#536dfe" d="m415.038637,196.338202a2.653191,2.987151 0 0 1 -0.176739,0.33638l-0.189363,-0.298478l0.366102,-0.037902z"/>
  </g>
 </g>
</svg>